<?xml version="1.0" standalone="no"?>
<!DOCTYPE svg PUBLIC "-//W3C//DTD SVG 20010904//EN"
 "http://www.w3.org/TR/2001/REC-SVG-20010904/DTD/svg10.dtd">
<svg version="1.0" xmlns="http://www.w3.org/2000/svg"
 width="1024.000000pt" height="1024.000000pt" viewBox="0 0 1024.000000 1024.000000"
 preserveAspectRatio="xMidYMid meet">

<g transform="translate(0.000000,1024.000000) scale(0.100000,-0.100000)"
fill="#000000" stroke="none">
<path d="M1285 6057 c-75 -42 -115 -94 -143 -183 -17 -57 -118 -416 -202 -719
-10 -38 -40 -143 -65 -233 -117 -419 -123 -463 -73 -554 27 -50 93 -103 146
-118 25 -7 1301 -10 3994 -10 3871 0 3958 0 4008 19 109 42 177 97 220 180 25
49 280 868 401 1286 51 177 37 268 -50 330 l-43 30 -4066 2 -4067 3 -60 -33z
m8195 3 c40 -24 70 -52 70 -67 0 -7 4 -13 9 -13 22 0 2 -147 -34 -249 -20 -57
-38 -111 -40 -120 -7 -35 -10 -46 -15 -51 -9 -9 -54 -154 -52 -167 2 -6 -2
-14 -7 -17 -5 -3 -7 -16 -3 -28 4 -16 2 -19 -8 -13 -10 6 -12 4 -7 -8 3 -10 3
-17 -2 -17 -4 0 -8 -6 -8 -12 -1 -7 -15 -53 -32 -102 -17 -49 -28 -93 -24 -99
3 -6 1 -7 -5 -3 -8 5 -13 -1 -13 -16 -1 -13 -2 -30 -3 -38 -1 -8 -5 -22 -11
-30 -5 -8 -10 -21 -11 -30 -2 -8 -10 -42 -19 -75 -9 -33 -21 -78 -26 -100 -6
-22 -14 -44 -20 -50 -5 -5 -9 -17 -9 -26 0 -9 -7 -33 -15 -53 -8 -20 -14 -37
-13 -39 2 -2 -3 -11 -11 -20 -11 -14 -11 -17 0 -17 9 0 7 -5 -5 -11 -14 -9
-15 -13 -6 -19 22 -14 -61 -149 -118 -192 -27 -21 -54 -38 -61 -38 -6 0 -11
-5 -11 -10 0 -6 -3 -9 -7 -8 -5 1 -26 -3 -48 -10 -52 -14 -1181 -15 -1209 0
-13 7 -16 7 -11 -1 5 -9 -68 -11 -277 -10 -156 0 -292 -3 -302 -7 -11 -4 -17
-4 -14 2 4 5 -88 8 -230 6 -145 -1 -238 -6 -240 -12 -6 -17 -22 -11 -23 8 0
10 -3 12 -6 4 -2 -6 -9 -10 -14 -6 -12 7 -1347 6 -1359 -1 -5 -3 -11 -1 -14 3
-3 5 -18 7 -33 5 -16 -2 -35 -4 -43 -4 -8 1 -204 1 -435 2 -305 0 -424 4 -434
12 -11 9 -13 9 -8 1 5 -9 -394 -12 -1588 -12 -1248 0 -1602 -3 -1626 -12 -16
-7 -32 -10 -36 -6 -3 3 1 6 10 6 30 0 18 17 -13 18 -16 0 -30 -4 -30 -11 0 -8
-3 -8 -12 1 -7 7 -19 12 -28 12 -30 0 -106 58 -123 95 -40 84 -37 104 70 485
30 107 74 269 99 360 53 195 147 532 170 610 32 111 85 171 181 206 32 11 695
13 4078 11 3571 -2 4043 -4 4065 -17z m-5943 -1777 c5 4 23 2 39 -2 19 -6 -16
-8 -103 -7 -140 1 -176 12 -47 14 42 1 79 4 82 7 3 3 9 0 13 -6 4 -6 11 -9 16
-6z m-2392 -3 c7 -12 -12 -12 -40 0 -18 8 -17 9 7 9 15 1 30 -3 33 -9z m55 -6
c0 -2 -9 -4 -20 -4 -11 0 -20 4 -20 9 0 5 9 7 20 4 11 -3 20 -7 20 -9z m74 7
c4 -5 -3 -7 -14 -4 -23 6 -26 13 -6 13 8 0 17 -4 20 -9z m104 -2 c-7 -4 -31
-3 -53 1 -40 8 -39 8 13 7 30 0 48 -4 40 -8z m91 0 c-18 -11 -46 -12 -53 -1
-3 4 11 9 31 9 25 1 32 -2 22 -8z m218 -1 c-6 -4 -40 -7 -74 -5 -33 1 -56 5
-50 9 7 4 40 7 74 6 35 -1 57 -6 50 -10z m153 0 c0 -8 -98 -4 -107 5 -2 3 21
5 51 5 31 -1 56 -5 56 -10z m640 1 c0 -5 -135 -8 -300 -9 -170 0 -299 4 -296
9 7 11 596 11 596 0z m165 2 c6 -10 -143 -7 -153 3 -3 3 29 6 71 6 42 0 78 -4
82 -9z m185 -1 c0 -5 -28 -9 -65 -8 -35 1 -59 6 -52 10 18 11 117 10 117 -2z
m53 -2 c-6 -11 -43 -10 -43 1 0 5 11 8 24 7 13 0 22 -4 19 -8z m87 2 c-20 -13
-33 -13 -25 0 3 6 14 10 23 10 15 0 15 -2 2 -10z m103 3 c-7 -2 -21 -2 -30 0
-10 3 -4 5 12 5 17 0 24 -2 18 -5z m147 -1 c0 -12 -83 -14 -112 -3 -17 6 -6 9
45 10 37 0 67 -3 67 -7z m555 0 c-8 -8 -105 -11 -101 -3 2 3 27 7 55 7 28 0
49 -2 46 -4z m212 1 c-9 -8 -166 -13 -171 -5 -3 5 34 9 85 9 49 0 88 -2 86 -4z
m173 -5 c0 -4 -26 -8 -57 -7 -41 0 -52 3 -38 9 25 10 95 9 95 -2z m80 -4 c0
-2 -11 -4 -25 -4 -14 0 -25 4 -25 9 0 4 11 6 25 3 14 -2 25 -6 25 -8z m90 12
c0 -2 -18 -6 -39 -8 -22 -2 -37 0 -35 4 5 8 74 11 74 4z m95 -6 c-3 -5 -14
-10 -23 -10 -15 0 -15 2 -2 10 20 13 33 13 25 0z m133 -4 c9 -9 -86 -4 -99 5
-9 6 7 7 40 4 30 -2 56 -7 59 -9z m158 1 c4 -4 -27 -7 -70 -7 -42 0 -75 4 -72
8 6 9 133 9 142 -1z m57 6 c3 -5 -6 -9 -19 -9 -13 -1 -24 2 -24 7 0 11 37 12
43 2z m162 -5 c3 -2 -29 -5 -70 -6 -41 -1 -75 1 -75 5 0 8 137 9 145 1z m145
2 c0 -4 -30 -8 -67 -8 -37 0 -62 3 -56 6 15 10 123 11 123 2z m55 0 c16 -7 14
-8 -12 -7 -18 1 -33 5 -33 10 0 9 19 8 45 -3z m79 2 c2 -4 -10 -8 -27 -9 -30
-1 -30 -1 -7 7 14 4 26 8 27 9 1 1 4 -3 7 -7z m381 -2 c-3 -5 -39 -9 -78 -8
l-72 2 70 6 c39 4 74 7 78 8 5 1 5 -2 2 -8z m-282 -7 c-13 -2 -35 -2 -50 0
-16 2 -5 4 22 4 28 0 40 -2 28 -4z m1130 0 c-7 -2 -21 -2 -30 0 -10 3 -4 5 12
5 17 0 24 -2 18 -5z m454 1 c-3 -3 -12 -4 -19 -1 -8 3 -5 6 6 6 11 1 17 -2 13
-5z m80 0 c-3 -3 -12 -4 -19 -1 -8 3 -5 6 6 6 11 1 17 -2 13 -5z m416 -1 c-7
-2 -19 -2 -25 0 -7 3 -2 5 12 5 14 0 19 -2 13 -5z m300 0 c-13 -2 -33 -2 -45
0 -13 2 -3 4 22 4 25 0 35 -2 23 -4z"/>
<path d="M1370 6010 c0 -5 -13 -10 -30 -10 -22 0 -41 -11 -70 -40 -58 -58 -49
-72 10 -16 27 25 57 46 66 46 10 0 1 -12 -25 -31 -44 -31 -65 -68 -75 -129 -3
-20 -12 -51 -19 -70 -8 -19 -12 -41 -10 -47 3 -7 0 -13 -5 -13 -6 0 -12 6 -15
13 -6 16 -31 -70 -32 -110 0 -17 3 -29 8 -26 10 6 9 -6 -7 -57 -8 -25 -15 -36
-15 -25 -1 17 -3 18 -11 5 -11 -17 -36 -99 -39 -132 -1 -4 -11 -17 -23 -29
-16 -15 -19 -23 -10 -26 6 -3 12 -9 12 -14 0 -4 -6 -6 -13 -3 -8 3 -13 -4 -14
-16 -1 -11 2 -18 8 -15 12 8 12 3 -7 -33 -8 -17 -16 -42 -17 -54 0 -13 -4 -25
-7 -28 -3 -3 -15 -39 -27 -80 -12 -41 -25 -84 -29 -94 -5 -14 -4 -17 5 -11 8
4 6 -3 -4 -18 -10 -16 -14 -34 -10 -48 4 -13 3 -19 -2 -16 -6 4 -15 -5 -21
-18 -8 -18 -8 -25 -1 -25 7 0 5 -10 -5 -24 -21 -32 -56 -165 -48 -184 3 -10 1
-13 -6 -8 -11 7 -18 -43 -14 -96 1 -10 -3 -18 -8 -18 -6 0 -10 -5 -10 -11 0
-5 4 -8 8 -5 4 2 9 -14 9 -36 1 -23 7 -46 13 -52 8 -8 9 -6 5 9 -4 11 0 8 10
-7 35 -62 -263 -58 4034 -58 4255 0 3974 -4 4061 54 69 45 95 91 138 241 66
231 117 403 147 495 19 58 59 188 90 290 83 270 115 372 127 397 15 30 2 143
-17 163 -13 12 -51 15 -213 17 -172 2 -385 2 -447 1 -11 0 -36 0 -55 1 -118 7
-479 3 -491 -5 -5 -3 -9 0 -9 6 0 6 -5 8 -11 4 -6 -3 -51 -6 -101 -5 -59 1
-87 -2 -83 -9 3 -5 1 -10 -4 -10 -6 0 -11 4 -11 9 0 5 -124 9 -280 10 -204 1
-280 -2 -280 -10 0 -9 -3 -9 -14 0 -14 11 -211 16 -363 8 -39 -1 -70 0 -67 5
3 4 -1 5 -9 2 -19 -7 -577 -11 -577 -4 0 3 -43 5 -95 5 -52 0 -95 -2 -95 -5 0
-3 -26 -4 -57 -4 -32 1 -66 -3 -75 -7 -10 -6 -19 -5 -23 1 -7 12 -2070 12
-2102 -1 -12 -4 -25 -4 -28 0 -3 5 -579 9 -1281 9 -701 0 -1278 3 -1281 6 -3
3 -15 1 -26 -5 -14 -8 -18 -8 -13 0 4 6 2 11 -3 11 -6 0 -11 -4 -11 -10z
m2768 -17 c-16 -2 -28 -9 -28 -14 0 -5 -8 -9 -17 -9 -15 0 -14 2 3 15 10 8 30
14 44 13 24 -1 24 -1 -2 -5z m2735 0 c-7 -2 -21 -2 -30 0 -10 3 -4 5 12 5 17
0 24 -2 18 -5z m-5000 -20 c-7 -2 -19 -2 -25 0 -7 3 -2 5 12 5 14 0 19 -2 13
-5z m200 0 c-29 -2 -78 -2 -110 0 -32 2 -8 3 52 3 61 0 87 -1 58 -3z m225 0
c-10 -2 -28 -2 -40 0 -13 2 -5 4 17 4 22 1 32 -1 23 -4z m130 0 c-16 -2 -40
-2 -55 0 -16 2 -3 4 27 4 30 0 43 -2 28 -4z m149 0 c-20 -2 -52 -2 -70 0 -17
2 0 4 38 4 39 0 53 -2 32 -4z m240 0 c-20 -2 -52 -2 -70 0 -17 2 0 4 38 4 39
0 53 -2 32 -4z m111 0 c-10 -2 -28 -2 -40 0 -13 2 -5 4 17 4 22 1 32 -1 23 -4z
m355 0 c-57 -2 -149 -2 -205 0 -57 1 -11 3 102 3 113 0 159 -2 103 -3z m595 0
c-21 -2 -57 -2 -80 0 -24 2 -7 4 37 4 44 0 63 -2 43 -4z m160 0 c-21 -2 -55
-2 -75 0 -21 2 -4 4 37 4 41 0 58 -2 38 -4z m520 0 c-82 -2 -214 -2 -295 0
-82 1 -15 3 147 3 162 0 229 -2 148 -3z m210 0 c-10 -2 -26 -2 -35 0 -10 3 -2
5 17 5 19 0 27 -2 18 -5z m105 0 c-13 -2 -35 -2 -50 0 -16 2 -5 4 22 4 28 0
40 -2 28 -4z m115 0 c-10 -2 -26 -2 -35 0 -10 3 -2 5 17 5 19 0 27 -2 18 -5z
m405 0 c-51 -2 -135 -2 -185 0 -51 1 -10 3 92 3 102 0 143 -2 93 -3z m1165 0
c-174 -2 -462 -2 -640 0 -178 1 -35 2 317 2 352 0 497 -1 323 -2z m369 1 c-3
-3 -12 -4 -19 -1 -8 3 -5 6 6 6 11 1 17 -2 13 -5z m130 -1 c-20 -2 -52 -2 -70
0 -17 2 0 4 38 4 39 0 53 -2 32 -4z m306 0 c-46 -2 -120 -2 -165 0 -46 1 -9 3
82 3 91 0 128 -2 83 -3z m385 0 c-43 -2 -113 -2 -155 0 -43 1 -8 3 77 3 85 0
120 -2 78 -3z m190 0 c-21 -2 -55 -2 -75 0 -21 2 -4 4 37 4 41 0 58 -2 38 -4z
m100 0 c-10 -2 -26 -2 -35 0 -10 3 -2 5 17 5 19 0 27 -2 18 -5z m180 0 c-15
-2 -42 -2 -60 0 -18 2 -6 4 27 4 33 0 48 -2 33 -4z m59 1 c-3 -3 -12 -4 -19
-1 -8 3 -5 6 6 6 11 1 17 -2 13 -5z m56 -1 c-7 -2 -21 -2 -30 0 -10 3 -4 5 12
5 17 0 24 -2 18 -5z m330 0 c-29 -2 -78 -2 -110 0 -32 2 -8 3 52 3 61 0 87 -1
58 -3z m120 0 c-13 -2 -33 -2 -45 0 -13 2 -3 4 22 4 25 0 35 -2 23 -4z m285 0
c-15 -2 -42 -2 -60 0 -18 2 -6 4 27 4 33 0 48 -2 33 -4z m209 1 c-3 -3 -12 -4
-19 -1 -8 3 -5 6 6 6 11 1 17 -2 13 -5z m165 -31 c29 -18 30 -20 25 -78 -3
-33 -23 -116 -45 -185 -65 -201 -185 -590 -247 -795 -112 -375 -115 -382 -159
-429 -27 -29 -60 -50 -99 -65 l-58 -21 -3921 0 c-2981 0 -3930 3 -3960 12 -46
14 -78 50 -78 87 0 15 27 123 60 241 64 229 104 371 195 700 31 113 63 225 70
250 8 25 21 74 30 110 26 103 54 150 100 171 38 18 194 19 4048 19 3800 0
4010 -1 4039 -17z m-8238 -280 c-12 -47 -25 -72 -18 -33 4 19 7 41 7 48 0 6 4
12 9 12 5 0 5 -12 2 -27z m-133 -466 c-10 -9 -11 -8 -5 6 3 10 9 15 12 12 3
-3 0 -11 -7 -18z m-41 -134 c-11 -17 -11 -17 -6 0 3 10 6 24 7 30 0 9 2 9 5 0
3 -7 0 -20 -6 -30z"/>
<path d="M1561 5726 c-30 -13 -88 -169 -76 -206 14 -44 40 -50 212 -47 120 1
165 -1 175 -11 10 -10 1 -46 -44 -185 -118 -361 -188 -586 -188 -599 0 -8 9
-23 19 -32 17 -15 36 -17 140 -14 104 3 122 6 134 22 13 18 39 92 198 576 39
118 75 220 80 225 6 6 90 12 189 15 205 6 214 9 262 96 32 57 36 112 11 143
-18 21 -23 21 -555 23 -296 2 -546 -1 -557 -6z m1082 -12 c12 -4 11 -17 -10
-77 -37 -107 -36 -107 -241 -105 -158 2 -174 0 -200 -18 -41 -31 -62 -83 -163
-394 -117 -364 -130 -400 -140 -400 -5 0 -9 -7 -9 -15 0 -8 5 -15 11 -15 5 0
7 -4 4 -10 -7 -11 -185 -14 -222 -4 -13 4 -20 10 -17 15 3 5 11 6 17 2 18 -12
128 -10 116 2 -5 5 -32 8 -59 7 -27 -1 -52 2 -55 8 -6 9 29 125 166 548 62
194 69 231 43 256 -18 18 -27 19 -225 16 -81 -1 -149 2 -152 7 -6 10 21 107
44 156 l12 27 533 0 c293 0 539 -3 547 -6z m36 -76 c1 -5 -5 -7 -11 -5 -8 1
-13 -9 -14 -23 -2 -54 -3 -56 -14 -40 -9 15 -5 44 13 90 9 24 10 24 17 5 5
-11 9 -23 9 -27z m-74 -128 c-3 -5 -14 -10 -23 -9 -14 0 -13 2 3 9 27 11 27
11 20 0z m-721 -16 c3 -8 2 -12 -4 -9 -6 3 -10 10 -10 16 0 14 7 11 14 -7z
m359 6 c-42 -10 -63 -27 -63 -54 -1 -27 -28 -87 -29 -64 -1 9 -4 18 -8 21 -5
2 -2 2 6 0 9 -2 11 2 7 13 -7 17 27 79 47 88 7 2 26 4 42 4 l30 0 -32 -8z m74
4 c-3 -3 -12 -4 -19 -1 -8 3 -5 6 6 6 11 1 17 -2 13 -5z m66 -1 c-7 -2 -21 -2
-30 0 -10 3 -4 5 12 5 17 0 24 -2 18 -5z m81 -1 c2 -4 -11 -6 -30 -4 -19 2
-34 6 -34 8 0 8 59 4 64 -4z m-321 -182 c-3 -11 -13 -20 -22 -19 -10 0 -11 2
-3 6 6 2 12 11 12 19 0 8 4 14 9 14 5 0 7 -9 4 -20z m-20 -60 c-3 -11 -7 -20
-9 -20 -2 0 -4 9 -4 20 0 11 4 20 9 20 5 0 7 -9 4 -20z m-24 -73 c-12 -43 -22
-50 -13 -9 9 42 14 55 19 50 2 -2 0 -21 -6 -41z m-78 -234 c-12 -20 -14 -14
-5 12 4 9 9 14 11 11 3 -2 0 -13 -6 -23z"/>
<path d="M1696 5657 c3 -10 9 -15 12 -12 3 3 0 11 -7 18 -10 9 -11 8 -5 -6z"/>
<path d="M1955 5660 c3 -5 8 -10 11 -10 2 0 4 5 4 10 0 6 -5 10 -11 10 -5 0
-7 -4 -4 -10z"/>
<path d="M2265 5610 c-3 -5 -1 -10 4 -10 6 0 11 5 11 10 0 6 -2 10 -4 10 -3 0
-8 -4 -11 -10z"/>
<path d="M1840 5057 c0 -10 8 -17 18 -17 9 0 13 4 7 8 -5 4 -13 11 -17 16 -5
5 -8 2 -8 -7z"/>
<path d="M1880 5029 c0 -5 5 -7 10 -4 6 3 10 8 10 11 0 2 -4 4 -10 4 -5 0 -10
-5 -10 -11z"/>
<path d="M1867 4969 c7 -7 15 -10 18 -7 3 3 -2 9 -12 12 -14 6 -15 5 -6 -5z"/>
<path d="M1860 4930 c-8 -5 -10 -10 -5 -10 6 0 17 5 25 10 8 5 11 10 5 10 -5
0 -17 -5 -25 -10z"/>
<path d="M1854 4886 c-19 -20 -24 -44 -9 -42 8 1 18 6 22 11 4 4 2 5 -4 1 -16
-9 -17 6 -1 22 6 6 10 14 7 16 -2 2 -9 -1 -15 -8z"/>
<path d="M1785 4861 c-8 -21 -2 -22 25 -1 25 19 25 19 3 17 -12 0 -25 -8 -28
-16z"/>
<path d="M1910 4860 c-9 -6 -10 -10 -3 -10 6 0 15 5 18 10 8 12 4 12 -15 0z"/>
<path d="M1750 4849 c0 -5 5 -7 10 -4 6 3 10 8 10 11 0 2 -4 4 -10 4 -5 0 -10
-5 -10 -11z"/>
<path d="M1796 4825 c-3 -8 -1 -15 3 -15 5 0 11 7 15 15 3 8 1 15 -3 15 -5 0
-11 -7 -15 -15z"/>
<path d="M1850 4820 c0 -5 -6 -10 -14 -10 -8 0 -16 -6 -19 -14 -5 -12 -1 -13
22 -5 25 9 40 39 19 39 -4 0 -8 -4 -8 -10z"/>
<path d="M1768 4779 c-17 -18 -17 -19 2 -19 13 0 20 7 20 20 0 24 0 24 -22 -1z"/>
<path d="M1835 4767 c-11 -6 -26 -12 -33 -13 -26 -4 -25 -14 1 -14 14 0 29 5
33 11 5 8 9 8 14 -1 4 -7 10 -8 13 -3 12 19 -7 32 -28 20z"/>
<path d="M1720 4761 c0 -13 28 -33 33 -23 3 4 -3 13 -14 20 -10 7 -19 8 -19 3z"/>
<path d="M1770 4723 c1 -16 67 -41 81 -32 11 8 9 9 -6 7 -14 -2 -20 2 -19 15
1 12 -6 17 -27 17 -16 0 -29 -3 -29 -7z"/>
<path d="M1840 4720 c0 -5 4 -10 9 -10 6 0 13 5 16 10 3 6 -1 10 -9 10 -9 0
-16 -4 -16 -10z"/>
<path d="M2975 5716 c-75 -24 -122 -55 -182 -120 -93 -102 -117 -154 -228
-496 -52 -161 -67 -266 -45 -322 19 -48 76 -104 129 -126 41 -18 80 -21 351
-27 343 -7 410 -1 507 46 143 69 234 209 316 484 56 187 71 261 65 323 -10
105 -92 208 -189 236 -69 21 -660 22 -724 2z m743 -25 c95 -43 157 -141 154
-245 -1 -34 -6 -62 -11 -64 -5 -2 -7 -11 -5 -20 3 -9 -7 -55 -21 -102 -24 -78
-32 -107 -34 -120 -1 -3 -6 2 -12 10 -8 12 -9 10 -4 -7 4 -14 2 -23 -5 -23 -6
0 -8 -10 -5 -23 6 -22 -33 -132 -42 -123 -2 2 3 21 12 42 9 22 18 61 20 87 2
27 9 55 15 62 6 7 10 17 9 21 -1 5 4 23 11 39 7 17 14 37 16 45 1 8 9 42 18
75 16 63 21 171 8 179 -4 2 -8 -28 -8 -67 0 -59 -10 -100 -54 -232 -64 -194
-114 -311 -147 -347 -15 -16 -22 -31 -18 -39 5 -7 4 -10 -3 -5 -6 3 -17 -1
-24 -10 -63 -80 -164 -144 -230 -146 -18 0 -163 -2 -323 -4 -291 -3 -349 2
-386 33 -9 7 -19 10 -22 6 -11 -11 -48 30 -43 46 4 13 3 13 -6 -1 -10 -14 -15
-9 -30 35 -15 41 -18 66 -12 117 6 66 117 422 158 508 79 166 192 270 321 293
22 4 177 6 345 6 298 -2 306 -3 358 -26z m3 -764 c-10 -9 -11 -8 -5 6 3 10 9
15 12 12 3 -3 0 -11 -7 -18z"/>
<path d="M3145 5600 c-3 -5 -1 -10 4 -10 6 0 11 5 11 10 0 6 -2 10 -4 10 -3 0
-8 -4 -11 -10z"/>
<path d="M3010 5560 c-8 -5 -10 -10 -5 -10 6 0 17 5 25 10 8 5 11 10 5 10 -5
0 -17 -5 -25 -10z"/>
<path d="M3057 5526 c-43 -16 -107 -62 -107 -78 0 -6 -6 -19 -13 -27 -12 -14
-114 -305 -122 -350 -2 -9 -4 -18 -5 -21 -5 -14 2 -78 11 -102 21 -53 35 -56
295 -57 l239 -1 50 38 c44 33 53 47 78 117 49 138 97 317 97 361 0 116 -26
128 -285 131 -147 2 -210 -1 -238 -11z m0 -29 c-10 -7 -28 -20 -39 -29 -12
-10 -26 -18 -33 -18 -11 0 -13 -5 -17 -49 -1 -11 -8 -17 -15 -14 -12 5 -18
-23 -16 -74 1 -7 -3 -11 -7 -8 -5 3 -11 1 -15 -5 -3 -5 -2 -10 4 -10 5 0 0
-29 -12 -64 -11 -36 -24 -63 -29 -60 -4 3 -3 14 3 25 6 11 8 27 5 35 -3 8 -1
14 5 14 6 0 8 7 5 16 -4 9 0 26 7 38 8 12 18 37 22 56 16 71 58 126 117 149
31 13 37 12 15 -2z m470 -43 c45 -33 42 -73 -18 -267 -57 -182 -75 -219 -128
-254 -33 -22 -41 -23 -260 -23 -269 0 -277 2 -268 79 8 60 121 376 152 422 39
60 78 68 302 66 177 -2 194 -4 220 -23z m-654 -321 c-7 -3 -13 -16 -13 -29 0
-13 -5 -24 -10 -24 -6 0 -8 11 -4 28 7 28 24 46 34 35 3 -3 -1 -8 -7 -10z
m-23 -72 c0 -6 -4 -13 -10 -16 -5 -3 -10 1 -10 9 0 9 5 16 10 16 6 0 10 -4 10
-9z"/>
<path d="M2796 5343 c-6 -14 -5 -15 5 -6 7 7 10 15 7 18 -3 3 -9 -2 -12 -12z"/>
<path d="M3750 5290 c0 -5 5 -10 11 -10 5 0 7 5 4 10 -3 6 -8 10 -11 10 -2 0
-4 -4 -4 -10z"/>
<path d="M3669 5243 c-13 -16 -12 -17 4 -4 9 7 17 15 17 17 0 8 -8 3 -21 -13z"/>
<path d="M3610 5236 c0 -2 7 -9 15 -16 13 -11 14 -10 9 4 -5 14 -24 23 -24 12z"/>
<path d="M2715 5190 c-3 -5 -1 -10 4 -10 6 0 11 5 11 10 0 6 -2 10 -4 10 -3 0
-8 -4 -11 -10z"/>
<path d="M2647 5061 c-4 -17 -3 -21 5 -13 5 5 8 16 6 23 -3 8 -7 3 -11 -10z"/>
<path d="M2704 5025 c-7 -17 42 -73 53 -62 3 4 1 7 -5 7 -7 0 -12 7 -12 15 0
8 -7 15 -15 15 -18 0 -20 26 -2 33 9 4 9 6 -1 6 -7 1 -15 -6 -18 -14z"/>
<path d="M2768 5033 c7 -3 16 -2 19 1 4 3 -2 6 -13 5 -11 0 -14 -3 -6 -6z"/>
<path d="M3580 5000 c-8 -5 -10 -10 -5 -10 6 0 17 5 25 10 8 5 11 10 5 10 -5
0 -17 -5 -25 -10z"/>
<path d="M2603 4988 c-20 -26 -26 -41 -15 -34 12 7 36 46 29 46 -3 0 -9 -6
-14 -12z"/>
<path d="M2655 4990 c4 -6 11 -8 16 -5 14 9 11 15 -7 15 -8 0 -12 -5 -9 -10z"/>
<path d="M2695 4960 c-3 -5 -1 -10 4 -10 6 0 11 5 11 10 0 6 -2 10 -4 10 -3 0
-8 -4 -11 -10z"/>
<path d="M2779 4953 c-13 -16 -12 -17 4 -4 16 13 21 21 13 21 -2 0 -10 -8 -17
-17z"/>
<path d="M2621 4944 c0 -11 3 -14 6 -6 3 7 2 16 -1 19 -3 4 -6 -2 -5 -13z"/>
<path d="M3575 4941 c-3 -5 -1 -12 5 -16 5 -3 10 1 10 9 0 18 -6 21 -15 7z"/>
<path d="M2643 4923 c-3 -10 -8 -21 -10 -25 -5 -9 36 3 43 13 3 5 -3 6 -12 2
-13 -5 -16 -3 -11 10 3 9 4 17 1 17 -2 0 -7 -8 -11 -17z"/>
<path d="M2710 4906 c7 -7 13 -7 20 0 6 6 3 10 -10 10 -13 0 -16 -4 -10 -10z"/>
<path d="M2786 4887 c3 -10 9 -15 12 -12 3 3 0 11 -7 18 -10 9 -11 8 -5 -6z"/>
<path d="M3480 4891 c0 -5 5 -13 10 -16 6 -3 10 -2 10 4 0 5 -4 13 -10 16 -5
3 -10 2 -10 -4z"/>
<path d="M3524 4884 c-18 -14 -18 -14 6 -3 31 14 36 19 24 19 -6 0 -19 -7 -30
-16z"/>
<path d="M3582 4888 c-15 -15 -16 -38 -1 -38 6 0 9 6 6 14 -3 8 -1 17 6 19 7
2 9 7 6 10 -3 4 -11 1 -17 -5z"/>
<path d="M3420 4879 c0 -5 5 -7 10 -4 6 3 10 8 10 11 0 2 -4 4 -10 4 -5 0 -10
-5 -10 -11z"/>
<path d="M2570 4871 c0 -10 19 -25 25 -20 1 2 -3 10 -11 17 -8 7 -14 8 -14 3z"/>
<path d="M2884 4862 c4 -7 1 -12 -8 -12 -18 0 -22 -25 -6 -35 6 -3 10 -1 10 5
0 6 4 8 10 5 6 -3 7 1 4 9 -4 11 0 16 11 16 9 0 13 -5 9 -11 -4 -8 -1 -8 12
-1 11 5 26 11 34 14 10 3 8 6 -8 10 -14 4 -20 2 -15 -5 4 -6 0 -8 -10 -4 -10
4 -24 10 -34 14 -11 4 -14 3 -9 -5z"/>
<path d="M3000 4860 c-13 -8 -12 -10 3 -10 9 0 17 5 17 10 0 12 -1 12 -20 0z"/>
<path d="M3433 4858 c-15 -20 -25 -38 -20 -38 3 0 12 11 21 25 17 26 16 35 -1
13z"/>
<path d="M3047 4843 c4 -9 10 -10 24 -2 25 13 24 17 -5 15 -14 0 -22 -6 -19
-13z"/>
<path d="M3139 4843 c-13 -16 -12 -17 4 -4 9 7 17 15 17 17 0 8 -8 3 -21 -13z"/>
<path d="M3230 4850 c0 -5 7 -7 15 -4 8 4 15 8 15 10 0 2 -7 4 -15 4 -8 0 -15
-4 -15 -10z"/>
<path d="M2781 4834 c0 -11 3 -14 6 -6 3 7 2 16 -1 19 -3 4 -6 -2 -5 -13z"/>
<path d="M3338 4825 c-16 -21 -16 -24 -2 -36 14 -11 15 -10 13 6 -2 11 0 26 5
33 14 23 2 21 -16 -3z"/>
<path d="M3507 4836 c-16 -13 -16 -14 -1 -20 9 -4 19 -4 22 -1 3 3 0 5 -8 5
-10 0 -10 3 0 15 15 18 11 19 -13 1z"/>
<path d="M2594 4825 c-10 -8 -14 -15 -8 -15 6 0 17 7 24 15 16 19 9 19 -16 0z"/>
<path d="M2633 4833 c4 -6 2 -13 -5 -15 -13 -5 -2 -28 13 -28 6 0 8 4 5 8 -2
4 7 9 22 10 14 1 29 8 33 14 9 15 1 26 -9 13 -11 -16 -33 -17 -50 -3 -10 8
-13 9 -9 1z"/>
<path d="M3025 4830 c-3 -5 -1 -10 4 -10 6 0 11 5 11 10 0 6 -2 10 -4 10 -3 0
-8 -4 -11 -10z"/>
<path d="M3300 4824 c0 -8 5 -12 10 -9 6 3 10 10 10 16 0 5 -4 9 -10 9 -5 0
-10 -7 -10 -16z"/>
<path d="M3450 4831 c0 -6 -11 -17 -25 -23 -32 -15 -32 -27 0 -20 14 2 23 7
21 10 -3 3 -1 11 6 19 6 7 8 16 4 20 -3 3 -6 1 -6 -6z"/>
<path d="M3546 4828 c3 -5 10 -6 15 -3 13 9 11 12 -6 12 -8 0 -12 -4 -9 -9z"/>
<path d="M2736 4815 c-11 -8 -15 -15 -10 -15 6 0 19 7 30 15 10 8 15 14 9 14
-5 0 -19 -6 -29 -14z"/>
<path d="M2800 4819 c0 -5 5 -7 10 -4 6 3 10 8 10 11 0 2 -4 4 -10 4 -5 0 -10
-5 -10 -11z"/>
<path d="M2926 4815 c-11 -8 -15 -15 -9 -15 6 0 16 7 23 15 16 19 11 19 -14 0z"/>
<path d="M3134 4808 l-19 -23 23 19 c12 11 22 21 22 23 0 8 -8 2 -26 -19z"/>
<path d="M3210 4819 c0 -5 5 -7 10 -4 6 3 10 8 10 11 0 2 -4 4 -10 4 -5 0 -10
-5 -10 -11z"/>
<path d="M3480 4802 c6 -13 14 -21 18 -18 3 4 -2 14 -12 24 -18 16 -18 16 -6
-6z"/>
<path d="M2818 4803 c-10 -2 -18 -9 -18 -14 0 -14 20 -11 36 6 16 15 13 16
-18 8z"/>
<path d="M2990 4800 c-9 -6 -10 -10 -3 -10 6 0 15 5 18 10 8 12 4 12 -15 0z"/>
<path d="M3020 4800 c0 -9 42 -21 49 -15 2 3 -2 5 -10 5 -12 0 -12 2 0 9 9 6
5 9 -13 9 -14 0 -26 -4 -26 -8z"/>
<path d="M2590 4790 c-12 -8 -10 -10 10 -10 18 0 21 -3 11 -9 -9 -6 -10 -11
-2 -15 6 -4 11 -3 11 2 0 6 10 8 23 6 l22 -5 -22 10 c-13 6 -23 15 -23 21 0
13 -10 13 -30 0z"/>
<path d="M2710 4783 c13 -28 22 -29 45 -3 22 24 13 27 -10 4 -15 -15 -17 -15
-31 2 -14 18 -14 18 -4 -3z"/>
<path d="M3214 4792 c-6 -4 -16 -16 -22 -27 -9 -18 -7 -21 11 -22 17 -2 19 0
7 7 -11 7 -8 10 15 11 17 1 22 3 13 6 -10 2 -18 9 -18 15 0 5 7 8 15 4 8 -3
15 -1 15 4 0 12 -20 13 -36 2z"/>
<path d="M3304 4770 c1 -17 4 -30 9 -30 10 0 9 48 -2 54 -4 3 -8 -8 -7 -24z"/>
<path d="M3375 4770 c4 -11 3 -20 -2 -19 -26 4 -46 -2 -37 -11 7 -7 19 -8 38
0 23 8 25 13 16 30 -14 26 -23 26 -15 0z"/>
<path d="M3460 4790 c-8 -26 -7 -41 2 -32 6 6 8 16 5 24 -3 7 -6 11 -7 8z"/>
<path d="M2815 4770 c-16 -4 -25 -9 -20 -10 6 -1 18 -3 27 -5 9 -2 19 3 22 11
3 8 4 13 3 13 -1 -1 -15 -5 -32 -9z"/>
<path d="M2864 4760 c0 -13 4 -16 10 -10 7 7 7 13 0 20 -6 6 -10 3 -10 -10z"/>
<path d="M3130 4770 c0 -5 5 -10 11 -10 5 0 7 5 4 10 -3 6 -8 10 -11 10 -2 0
-4 -4 -4 -10z"/>
<path d="M3480 4749 c-35 -31 -35 -31 -3 -9 18 11 35 25 38 30 10 16 2 11 -35
-21z"/>
<path d="M2960 4759 c0 -5 -5 -7 -12 -3 -7 4 -8 3 -4 -4 10 -16 23 -15 30 3 3
8 1 15 -4 15 -6 0 -10 -5 -10 -11z"/>
<path d="M2997 4763 c-3 -5 8 -8 23 -8 15 0 26 3 23 8 -2 4 -13 7 -23 7 -10 0
-21 -3 -23 -7z"/>
<path d="M3065 4760 c-3 -5 1 -10 9 -10 9 0 16 5 16 10 0 6 -4 10 -9 10 -6 0
-13 -4 -16 -10z"/>
<path d="M2890 4738 c0 -19 2 -20 10 -8 13 19 13 30 0 30 -5 0 -10 -10 -10
-22z"/>
<path d="M3088 4742 c-22 -14 -46 -52 -32 -52 5 0 33 28 53 53 16 20 14 20
-21 -1z"/>
<path d="M3418 4753 c7 -3 16 -2 19 1 4 3 -2 6 -13 5 -11 0 -14 -3 -6 -6z"/>
<path d="M2670 4739 c0 -5 5 -7 10 -4 6 3 10 1 10 -4 0 -14 -17 -14 -25 -1 -3
6 -18 9 -33 9 -21 -1 -23 -2 -7 -6 11 -3 29 -12 40 -19 25 -18 31 -18 39 3 4
9 1 20 -6 25 -18 11 -28 10 -28 -3z"/>
<path d="M2746 4730 c-18 -18 -18 -19 2 -13 11 3 23 11 26 19 7 19 -5 17 -28
-6z"/>
<path d="M2787 4735 c-4 -9 -1 -12 7 -9 8 3 17 1 20 -4 8 -13 -11 -19 -61 -17
-23 0 -40 -2 -37 -6 2 -4 39 -6 81 -6 43 1 70 3 61 5 -10 2 -18 8 -18 14 0 5
7 8 15 5 8 -4 17 -1 21 4 4 7 -3 10 -17 8 -13 -2 -34 2 -46 9 -17 9 -22 9 -26
-3z"/>
<path d="M3140 4736 c0 -12 -5 -16 -15 -12 -9 3 -15 0 -15 -9 0 -8 -5 -15 -12
-15 -6 0 -8 -3 -5 -6 4 -4 12 -2 19 3 7 6 25 13 41 15 20 4 27 1 27 -10 0 -13
3 -12 14 4 8 10 18 15 22 11 5 -4 2 -13 -6 -18 -12 -9 -12 -10 3 -5 10 3 21 6
23 6 3 0 2 6 -2 13 -4 6 -4 9 1 5 4 -4 16 -3 26 2 11 6 19 6 21 0 2 -6 8 -6
18 0 13 8 12 10 -2 10 -10 0 -18 5 -18 11 0 8 -4 8 -13 0 -21 -17 -107 -17
-118 0 -7 11 -9 10 -9 -5z"/>
<path d="M2910 4731 c0 -5 6 -11 13 -13 17 -7 38 2 31 13 -7 12 -44 12 -44 0z"/>
<path d="M3005 4730 c-3 -6 1 -7 9 -4 9 3 16 1 16 -6 0 -6 5 -8 11 -4 8 4 7 9
-2 15 -18 11 -26 11 -34 -1z"/>
<path d="M3395 4729 c-4 -5 -18 -15 -32 -20 -14 -5 -23 -12 -20 -15 10 -10 47
7 57 27 11 20 6 27 -5 8z"/>
<path d="M3416 4724 c-9 -23 -2 -28 13 -10 7 8 8 17 3 20 -6 3 -13 -1 -16 -10z"/>
<path d="M2887 4703 c-13 -13 -7 -21 13 -16 11 3 17 9 14 14 -6 11 -18 12 -27
2z"/>
<path d="M2980 4698 c0 -4 7 -8 15 -8 8 0 15 4 15 8 0 5 -7 9 -15 9 -8 0 -15
-4 -15 -9z"/>
<path d="M3283 4703 c-18 -2 -33 -8 -33 -12 0 -4 16 -5 35 -3 19 2 35 8 35 13
0 5 -1 8 -2 7 -2 0 -18 -3 -35 -5z"/>
<path d="M4151 5693 c-18 -38 -211 -657 -237 -763 -29 -120 -7 -203 69 -264
l39 -31 296 -5 c164 -3 320 -2 349 2 82 10 151 47 229 124 86 84 110 131 198
384 35 102 76 217 91 255 54 140 84 248 78 277 -10 50 -37 59 -164 56 l-114
-3 -120 -355 c-66 -195 -126 -365 -133 -377 -7 -13 -36 -36 -65 -53 l-52 -30
-185 0 c-102 0 -191 4 -199 9 -21 13 -10 57 59 247 162 439 172 470 164 507
-11 52 -24 57 -160 57 l-124 0 -19 -37z m278 9 c10 -16 7 -60 -8 -95 -6 -16
-11 -34 -11 -42 0 -7 -7 -21 -16 -29 -8 -9 -13 -16 -9 -16 3 0 1 -9 -5 -21 -7
-11 -14 -18 -17 -15 -3 3 0 12 7 21 7 8 10 15 6 15 -4 0 0 10 9 23 8 12 16 33
18 45 2 12 6 25 10 28 4 4 7 23 6 43 0 33 -2 29 -25 -34 -14 -38 -31 -86 -38
-105 -12 -31 -135 -376 -173 -486 -19 -55 -4 -116 32 -132 17 -8 91 -12 208
-12 180 0 183 0 244 29 34 16 69 41 79 55 9 15 69 187 134 384 l117 357 98 3
c107 3 140 -8 151 -51 5 -24 -24 -107 -38 -107 -11 0 -10 14 2 26 5 5 12 32
15 59 l5 50 -18 -55 c-10 -30 -25 -71 -34 -90 -31 -71 -80 -206 -81 -222 -1
-10 -4 -18 -7 -18 -3 0 -12 -17 -19 -37 -33 -100 -54 -142 -65 -136 -6 4 -6 0
2 -9 10 -13 10 -18 -1 -30 -8 -7 -17 -30 -21 -51 -4 -20 -11 -37 -17 -37 -6 0
-8 -4 -5 -8 9 -14 -30 -107 -43 -104 -7 1 -10 -2 -7 -7 4 -5 2 -12 -4 -16 -6
-4 -7 -11 -4 -17 5 -8 1 -9 -10 -5 -14 5 -17 3 -13 -8 4 -8 2 -17 -3 -20 -9
-5 -15 15 -11 38 0 4 -4 7 -9 7 -12 0 -12 2 -1 -37 8 -26 7 -31 -5 -26 -10 4
-13 0 -8 -13 5 -18 5 -18 -6 -1 -14 21 -32 13 -23 -10 5 -13 2 -15 -11 -10 -9
4 -15 3 -11 -2 7 -12 -51 -69 -84 -84 -37 -16 -567 -21 -649 -6 -49 9 -67 18
-87 41 -14 16 -25 38 -25 48 0 10 -4 21 -9 25 -6 3 -13 25 -16 49 -7 44 6 94
126 486 21 69 50 166 64 215 55 186 46 178 192 173 78 -2 116 -7 122 -16z
m773 -194 c-13 -13 -24 5 -16 27 7 16 8 16 17 0 6 -11 6 -20 -1 -27z m-19 -51
c-9 -15 -21 4 -15 25 5 21 6 21 12 2 4 -10 5 -22 3 -27z m-808 5 c-5 -4 -11
-18 -12 -32 -3 -24 -42 -119 -53 -130 -3 -3 -6 -13 -7 -22 -2 -52 -3 -54 -13
-37 -10 17 3 74 21 94 5 5 9 17 9 26 0 10 7 25 16 34 9 8 13 22 10 30 -3 8 -1
15 4 15 6 0 9 3 9 8 -3 15 1 22 14 22 7 0 8 -3 2 -8z m795 -32 c0 -5 -2 -10
-4 -10 -3 0 -8 5 -11 10 -3 6 -1 10 4 10 6 0 11 -4 11 -10z m-15 -42 c-5 -30
-34 -106 -35 -93 -6 46 -4 57 11 71 10 9 15 22 12 30 -3 8 -1 14 5 14 6 0 9
-10 7 -22z m-35 -118 c0 -5 -8 -10 -17 -10 -15 0 -16 2 -3 10 19 12 20 12 20
0z m-10 -28 c0 -4 -7 -17 -15 -28 -8 -12 -12 -23 -10 -26 3 -3 -2 -5 -10 -5
-11 0 -12 4 -5 11 5 5 10 20 10 33 0 14 6 23 15 23 8 0 15 -3 15 -8z m-826
-17 c3 -8 1 -15 -4 -15 -6 0 -10 7 -10 15 0 8 2 15 4 15 2 0 6 -7 10 -15z
m-17 -54 c-1 -17 -6 -26 -10 -21 -8 7 -1 50 8 50 2 0 3 -13 2 -29z m795 -65
c-18 -53 -20 -55 -38 -40 -18 15 -18 15 0 10 15 -5 17 -2 13 13 -3 11 2 26 9
32 8 7 13 18 10 25 -4 11 13 26 22 19 2 -2 -5 -28 -16 -59z m-806 22 c4 -7 3
-8 -4 -4 -7 4 -12 2 -12 -5 0 -7 -3 -10 -6 -6 -6 5 3 27 11 27 2 0 7 -5 11
-12z m768 -115 c-7 -38 -40 -113 -49 -113 -3 0 3 17 13 38 11 20 22 54 26 75
4 20 9 37 12 37 3 0 2 -17 -2 -37z"/>
<path d="M4150 5281 c0 -6 4 -13 10 -16 6 -3 7 1 4 9 -7 18 -14 21 -14 7z"/>
<path d="M4102 5230 c-32 -30 -27 -38 6 -9 15 13 29 25 31 27 2 1 0 2 -5 2 -6
0 -20 -9 -32 -20z"/>
<path d="M4991 5188 c-10 -17 -15 -18 -22 -7 -7 12 -10 12 -21 0 -8 -9 -9 -11
-1 -7 6 3 19 -4 27 -16 15 -22 16 -22 16 -2 0 11 5 25 12 32 6 6 10 14 7 16
-3 3 -11 -4 -18 -16z"/>
<path d="M4020 5109 c0 -5 5 -7 10 -4 6 3 10 8 10 11 0 2 -4 4 -10 4 -5 0 -10
-5 -10 -11z"/>
<path d="M4906 5077 c-11 -8 -17 -19 -15 -24 2 -6 12 0 22 13 20 27 19 30 -7
11z"/>
<path d="M4066 5044 c-6 -15 -4 -15 11 -3 10 7 20 15 22 16 2 2 -3 3 -11 3 -9
0 -19 -7 -22 -16z"/>
<path d="M3996 5023 c-6 -14 -5 -15 5 -6 7 7 10 15 7 18 -3 3 -9 -2 -12 -12z"/>
<path d="M4120 5031 c0 -5 8 -15 18 -22 15 -12 16 -12 5 2 -7 9 -10 19 -6 22
3 4 1 7 -5 7 -7 0 -12 -4 -12 -9z"/>
<path d="M4076 5014 c-10 -26 -7 -29 9 -8 15 19 15 19 9 -1 -6 -16 -4 -18 6
-8 7 6 9 16 6 22 -10 16 -23 14 -30 -5z"/>
<path d="M4926 4994 c-5 -14 -4 -15 9 -4 17 14 19 20 6 20 -5 0 -12 -7 -15
-16z"/>
<path d="M4117 4986 c-4 -11 -1 -13 10 -9 11 4 14 2 9 -5 -4 -7 -2 -12 3 -12
15 0 14 15 -3 29 -10 9 -15 8 -19 -3z"/>
<path d="M4897 4993 c-4 -3 -7 -11 -7 -17 0 -6 5 -5 12 2 6 6 9 14 7 17 -3 3
-9 2 -12 -2z"/>
<path d="M4935 4970 c-3 -5 -1 -10 4 -10 6 0 11 5 11 10 0 6 -2 10 -4 10 -3 0
-8 -4 -11 -10z"/>
<path d="M4060 4966 c0 -2 7 -6 15 -10 8 -3 15 -1 15 4 0 6 -7 10 -15 10 -8 0
-15 -2 -15 -4z"/>
<path d="M4766 4955 c-3 -8 -1 -15 3 -15 5 0 11 7 15 15 3 8 1 15 -3 15 -5 0
-11 -7 -15 -15z"/>
<path d="M4850 4959 c0 -5 5 -7 10 -4 6 3 10 8 10 11 0 2 -4 4 -10 4 -5 0 -10
-5 -10 -11z"/>
<path d="M3986 4952 c-3 -3 -6 -12 -6 -21 0 -11 3 -12 8 -5 4 7 16 14 27 16
19 4 19 4 -2 10 -12 3 -24 3 -27 0z"/>
<path d="M4880 4945 c-11 -13 -10 -14 4 -9 9 3 16 10 16 15 0 13 -6 11 -20 -6z"/>
<path d="M4060 4941 c0 -6 4 -13 10 -16 6 -3 7 1 4 9 -7 18 -14 21 -14 7z"/>
<path d="M4099 4933 c-13 -17 -13 -17 6 -3 11 8 22 16 24 17 2 2 0 3 -6 3 -6
0 -17 -8 -24 -17z"/>
<path d="M4794 4909 c-19 -22 -19 -22 4 -8 12 8 22 17 22 21 0 12 -6 9 -26
-13z"/>
<path d="M4099 4903 c-13 -17 -13 -17 6 -3 11 8 22 16 24 17 2 2 0 3 -6 3 -6
0 -17 -8 -24 -17z"/>
<path d="M4848 4913 c7 -3 16 -2 19 1 4 3 -2 6 -13 5 -11 0 -14 -3 -6 -6z"/>
<path d="M3962 4882 c-11 -25 -11 -25 4 -10 9 9 15 21 13 27 -2 6 -10 -2 -17
-17z"/>
<path d="M4047 4903 c-3 -5 5 -16 18 -25 23 -17 23 -17 11 7 -11 25 -21 31
-29 18z"/>
<path d="M4000 4880 c0 -5 7 -10 15 -10 8 0 15 5 15 10 0 6 -7 10 -15 10 -8 0
-15 -4 -15 -10z"/>
<path d="M4141 4880 c3 -36 -1 -42 -26 -38 -13 3 -22 1 -19 -3 8 -13 38 -11
57 4 16 11 16 14 2 32 -11 14 -15 16 -14 5z"/>
<path d="M4705 4880 c-3 -5 -1 -10 4 -10 6 0 11 5 11 10 0 6 -2 10 -4 10 -3 0
-8 -4 -11 -10z"/>
<path d="M4752 4874 c-7 -8 -8 -14 -3 -14 10 0 25 19 20 25 -2 1 -10 -3 -17
-11z"/>
<path d="M4232 4875 c4 -4 3 -14 -3 -22 -7 -8 -8 -13 -1 -13 15 0 23 28 9 36
-7 4 -9 4 -5 -1z"/>
<path d="M4619 4863 c-13 -15 -12 -15 11 -3 34 17 36 20 18 20 -9 0 -22 -7
-29 -17z"/>
<path d="M4815 4869 c-4 -6 -5 -12 -2 -15 2 -3 7 2 10 11 7 17 1 20 -8 4z"/>
<path d="M4110 4860 c0 -5 5 -10 10 -10 6 0 10 5 10 10 0 6 -4 10 -10 10 -5 0
-10 -4 -10 -10z"/>
<path d="M4196 4853 c-6 -14 -5 -15 5 -6 7 7 10 15 7 18 -3 3 -9 -2 -12 -12z"/>
<path d="M4251 4843 c-9 -20 -10 -28 -1 -31 8 -3 8 -8 -1 -18 -9 -11 -9 -17 0
-28 10 -12 8 -19 -7 -34 -22 -22 -39 -18 -20 5 18 22 5 23 -21 2 -19 -15 -20
-19 -6 -19 11 0 15 -5 11 -15 -3 -8 -2 -15 2 -15 12 1 62 48 62 60 0 5 7 10
15 10 17 0 20 -16 5 -25 -5 -3 -10 -12 -10 -18 1 -7 9 -2 19 11 11 12 27 22
38 22 14 0 15 2 4 9 -8 5 -9 11 -3 15 5 3 10 17 10 31 0 13 -5 22 -10 19 -5
-3 -7 -13 -4 -21 4 -9 1 -13 -6 -10 -7 2 -11 12 -10 22 3 16 1 17 -11 7 -15
-13 -47 -7 -47 9 0 13 18 11 22 -3 3 -7 7 -8 10 -3 3 6 -2 18 -12 28 -16 16
-17 16 -29 -10z m65 -55 c3 -5 1 -15 -5 -21 -8 -8 -11 -8 -11 1 0 8 -9 10 -27
6 -23 -6 -25 -5 -13 7 16 18 47 22 56 7z"/>
<path d="M4505 4854 c-16 -16 -16 -18 0 -27 20 -11 35 1 16 12 -11 7 -11 9 0
13 8 3 11 8 8 12 -4 4 -14 -1 -24 -10z"/>
<path d="M4017 4845 c-8 -8 -17 -12 -20 -9 -9 9 -47 -6 -47 -18 0 -7 5 -7 14
1 7 6 20 9 28 6 8 -3 23 3 33 15 21 23 14 28 -8 5z"/>
<path d="M4315 4850 c-3 -5 5 -10 17 -12 15 -2 22 -9 22 -21 -2 -25 9 -21 34
13 13 17 18 30 13 30 -5 0 -11 -5 -13 -12 -3 -8 -12 -9 -36 0 -17 6 -34 7 -37
2z"/>
<path d="M4414 4838 l-19 -22 26 16 c14 9 36 18 50 21 20 4 19 4 -7 6 -21 1
-37 -6 -50 -21z"/>
<path d="M4550 4850 c-20 -12 -10 -19 14 -10 11 3 15 9 10 13 -6 3 -16 2 -24
-3z"/>
<path d="M4699 4849 c-10 -6 -8 -9 10 -9 21 0 22 -2 10 -17 -13 -17 -12 -17 4
-4 14 12 20 12 26 2 6 -9 11 -8 22 5 8 10 9 15 3 11 -6 -3 -22 0 -36 7 -16 8
-31 10 -39 5z"/>
<path d="M4041 4836 c-9 -10 -8 -15 3 -19 8 -3 20 2 28 11 12 16 11 16 -6 2
-18 -14 -19 -13 -13 3 8 21 3 22 -12 3z"/>
<path d="M4647 4836 c-4 -10 1 -12 14 -9 23 6 24 9 5 16 -8 3 -17 0 -19 -7z"/>
<path d="M4613 4821 c-3 -12 -11 -17 -19 -14 -15 6 -44 -13 -44 -29 0 -5 9 -4
19 2 23 12 31 13 30 3 -1 -5 -1 -19 0 -33 2 -24 2 -25 11 -3 10 25 39 43 69
43 12 0 21 4 21 9 0 12 -56 -3 -76 -20 -11 -9 -14 -8 -14 5 0 9 4 16 8 16 4 0
8 9 8 20 0 25 -6 26 -13 1z"/>
<path d="M4171 4819 c8 -5 8 -8 0 -13 -6 -4 -11 -13 -11 -19 0 -9 2 -9 8 -1 4
6 20 18 37 27 l30 15 -37 -1 c-21 0 -33 -4 -27 -8z"/>
<path d="M4436 4822 c-4 -3 1 -14 11 -24 9 -10 11 -18 5 -18 -6 0 -9 -7 -5
-16 4 -10 -1 -17 -15 -21 -12 -3 -24 -14 -28 -25 -3 -11 -11 -17 -18 -15 -7 3
-19 2 -25 -3 -9 -5 -3 -7 14 -7 14 0 29 6 32 13 3 8 9 14 14 14 31 0 67 79 37
81 -7 0 -4 4 6 8 19 7 19 8 -1 13 -12 3 -24 3 -27 0z"/>
<path d="M4066 4805 c-11 -8 -17 -17 -14 -20 3 -3 13 1 21 10 14 14 16 13 22
-6 5 -14 10 -18 17 -11 6 6 17 8 24 5 8 -3 14 1 14 11 0 18 -15 22 -25 6 -10
-16 -28 -12 -21 5 7 19 -13 19 -38 0z"/>
<path d="M3969 4808 c-7 -13 -4 -48 3 -48 5 0 7 9 3 19 -4 15 0 21 17 24 l23
4 -22 2 c-13 0 -24 0 -24 -1z"/>
<path d="M4390 4793 c0 -7 4 -13 9 -13 5 0 11 6 14 13 3 8 -1 14 -9 14 -8 0
-14 -6 -14 -14z"/>
<path d="M4504 4802 c-5 -4 -10 -16 -12 -27 -2 -11 -9 -24 -16 -30 -7 -5 -13
-14 -12 -20 1 -5 -9 -14 -21 -20 -27 -11 -32 -31 -5 -20 16 7 87 7 144 1 15
-2 25 1 22 6 -3 5 -12 7 -20 4 -7 -3 -16 0 -20 5 -3 6 -14 9 -23 6 -14 -3 -17
2 -16 29 0 18 -3 30 -7 28 -4 -3 -8 -12 -8 -20 0 -8 -4 -14 -10 -14 -17 0 -11
20 14 45 16 16 20 25 11 28 -6 3 -16 2 -21 -1z m-11 -100 c-18 -5 -27 3 -18
17 4 7 10 7 20 -2 11 -10 11 -13 -2 -15z"/>
<path d="M4195 4790 c-3 -6 1 -13 10 -16 21 -9 26 -2 10 13 -9 8 -16 9 -20 3z"/>
<path d="M4736 4778 c-14 -21 -15 -21 -10 -3 3 13 0 10 -11 -7 -15 -27 -52
-54 -61 -45 -3 2 7 12 22 21 14 10 23 20 20 23 -3 3 -13 -2 -22 -11 -21 -21
-32 -12 -13 11 11 14 9 13 -13 -2 -14 -11 -31 -28 -38 -39 -11 -17 -9 -18 14
-12 16 4 26 2 26 -4 0 -7 7 -7 22 1 16 8 23 9 26 1 4 -13 32 -4 32 10 0 6 -8
7 -17 4 -11 -4 -8 2 7 14 14 11 32 17 40 14 11 -4 12 -2 3 7 -6 6 -9 18 -6 25
8 21 -3 17 -21 -8z"/>
<path d="M4009 4774 c-25 -30 -20 -50 17 -67 42 -21 44 -21 44 -2 0 8 6 15 14
15 8 0 17 7 20 16 8 22 7 31 -2 17 -12 -20 -89 -26 -95 -8 -5 11 1 14 21 11
15 -2 19 -1 9 1 -11 3 -16 10 -13 19 7 18 2 18 -15 -2z m51 -54 c0 -5 -8 -10
-17 -10 -15 0 -16 2 -3 10 19 12 20 12 20 0z"/>
<path d="M4365 4780 c-3 -5 -1 -10 5 -10 8 0 8 -6 -1 -21 -7 -14 -17 -19 -30
-16 -21 6 -27 -8 -6 -16 6 -3 2 -6 -10 -6 -13 -1 -23 -5 -23 -10 0 -6 9 -9 20
-8 11 1 20 4 20 8 0 4 20 17 45 29 25 12 45 26 45 31 0 15 -22 10 -36 -8 -12
-17 -13 -16 -8 3 6 23 -10 41 -21 24z"/>
<path d="M4075 4769 c-4 -6 -5 -12 -2 -15 2 -3 7 2 10 11 7 17 1 20 -8 4z"/>
<path d="M4125 4760 c4 -6 11 -8 16 -5 14 9 11 15 -7 15 -8 0 -12 -5 -9 -10z"/>
<path d="M4166 4754 c-5 -12 -2 -15 10 -10 8 3 18 6 20 6 3 0 2 5 -1 10 -9 15
-22 12 -29 -6z"/>
<path d="M4567 4753 c-12 -12 -17 -13 -17 -5 0 7 -4 10 -10 7 -5 -3 -10 -11
-10 -16 0 -6 5 -7 10 -4 6 3 10 0 10 -7 0 -7 9 -4 22 10 12 12 20 24 17 26 -3
3 -13 -2 -22 -11z"/>
<path d="M4120 4720 c0 -6 -9 -10 -20 -10 -11 0 -20 -4 -20 -10 0 -14 33 -12
49 3 11 10 14 10 18 0 3 -7 12 -13 21 -13 13 0 14 2 4 9 -8 4 -12 12 -10 16 1
4 -7 10 -19 11 -13 2 -23 -1 -23 -6z"/>
<path d="M4253 4693 c9 -2 23 -2 30 0 6 3 -1 5 -18 5 -16 0 -22 -2 -12 -5z"/>
<path d="M5498 5716 c-19 -18 -44 -92 -212 -606 -75 -228 -136 -425 -136 -436
0 -42 24 -49 158 -48 107 2 127 4 142 20 10 11 37 78 60 149 24 72 47 136 53
143 8 10 40 13 133 10 149 -4 144 0 234 -168 45 -84 73 -126 92 -136 19 -10
61 -14 136 -14 165 0 175 21 87 199 -30 62 -55 120 -54 129 0 11 25 29 69 50
203 97 334 344 276 520 -23 68 -91 143 -158 173 -53 24 -56 24 -459 27 -346 2
-409 1 -421 -12z m847 -17 c41 -14 171 -129 146 -129 -9 0 -11 -8 -6 -27 16
-61 15 -85 -5 -163 -22 -85 -64 -163 -121 -222 -17 -18 -34 -37 -37 -43 -8
-12 -27 -24 -101 -62 -29 -15 -72 -45 -95 -66 -38 -36 -33 -43 7 -9 10 9 17
11 17 4 0 -6 -5 -14 -10 -17 -7 -4 -7 -13 0 -25 8 -15 6 -21 -9 -29 -15 -8
-22 -6 -35 12 -9 12 -15 18 -13 12 2 -5 8 -19 12 -30 15 -36 16 -65 4 -87 -10
-19 -7 -18 19 7 17 16 29 32 26 36 -2 5 4 13 15 18 16 9 20 7 25 -13 3 -12 26
-53 51 -91 25 -37 45 -75 43 -84 -4 -18 -38 -29 -38 -12 0 6 7 11 15 11 22 0
18 18 -10 46 -14 14 -23 31 -19 37 3 7 -2 3 -10 -7 -9 -11 -16 -17 -16 -13 0
4 -9 3 -19 -2 -21 -12 -48 10 -36 29 4 7 -3 9 -21 6 -15 -3 -35 0 -43 6 -9 7
-13 9 -9 4 4 -5 1 -17 -6 -28 -18 -25 -6 -70 19 -75 24 -5 40 -5 84 0 37 5 61
0 61 -13 0 -4 -40 -8 -89 -8 -72 0 -88 3 -84 14 3 8 0 14 -7 14 -7 0 -10 7 -6
16 5 14 4 15 -9 4 -18 -15 -45 -6 -45 15 0 8 -5 15 -11 15 -5 0 -8 4 -5 9 4 5
0 12 -6 14 -9 4 -8 6 3 6 8 1 20 -4 27 -11 22 -22 52 -17 59 11 3 14 11 30 17
34 6 5 1 7 -12 4 -18 -4 -22 -2 -18 10 3 8 6 19 6 24 0 5 8 9 18 8 10 0 12 -3
5 -6 -7 -2 -13 -9 -13 -15 0 -20 25 0 26 21 1 15 -3 20 -12 17 -8 -3 -14 0
-14 7 -1 7 -6 5 -14 -5 -7 -10 -15 -16 -17 -14 -2 3 -4 -8 -4 -22 0 -15 5 -31
12 -37 11 -8 9 -13 -6 -22 -17 -11 -20 -10 -19 5 0 9 -2 31 -6 49 -5 28 -2 34
29 53 19 12 35 24 35 27 0 3 -12 -2 -26 -12 -29 -18 -43 -15 -19 5 8 7 15 17
15 23 0 6 -6 2 -14 -9 -8 -10 -18 -15 -22 -11 -5 4 -2 12 5 16 8 5 10 14 6 21
-6 9 -4 11 4 5 10 -6 11 -3 2 14 -15 28 -18 27 -17 -5 1 -21 -4 -28 -23 -31
-24 -3 -24 -3 -5 19 l19 22 -26 -19 c-19 -14 -23 -22 -15 -31 8 -8 15 -9 24
-2 13 11 15 6 16 -47 1 -16 -5 -36 -12 -44 -7 -7 -10 -16 -7 -19 3 -4 10 0 15
8 6 8 10 10 10 5 0 -13 -20 -35 -32 -35 -4 0 -8 7 -8 15 0 8 -5 15 -12 15 -6
0 -9 3 -5 6 3 4 -4 21 -17 38 -13 17 -27 42 -31 56 -4 14 -18 34 -31 46 -13
12 -22 23 -20 25 3 2 -10 4 -27 4 -23 0 -31 4 -29 15 2 13 1 13 -10 0 -13 -15
-80 -21 -93 -9 -5 5 -43 4 -72 -2 -4 -1 -16 1 -25 5 -11 5 -30 0 -51 -13 -29
-17 -39 -36 -66 -108 -17 -49 -31 -91 -31 -96 0 -4 -7 -21 -15 -37 -8 -16 -15
-32 -15 -35 1 -35 -10 -43 -65 -49 -20 -3 -22 0 -15 23 15 52 32 79 46 74 19
-7 18 -23 -1 -23 -8 0 -15 -5 -15 -11 0 -5 5 -7 10 -4 6 3 10 -1 10 -10 0 -11
-5 -15 -15 -11 -9 3 -15 0 -15 -8 0 -8 8 -13 18 -11 9 2 20 4 24 4 4 1 5 12 2
26 -2 14 0 25 5 25 5 0 12 7 15 16 3 8 2 12 -4 9 -17 -11 -11 9 15 48 14 20
21 37 14 37 -6 0 -9 6 -6 14 6 14 -21 32 -31 21 -3 -3 0 -5 7 -5 7 0 10 -4 6
-9 -3 -5 -1 -12 5 -16 5 -3 10 -12 10 -18 0 -7 -4 -6 -10 3 -5 8 -12 11 -17 7
-4 -5 -1 -12 6 -16 7 -5 10 -14 7 -20 -10 -15 -35 9 -28 27 2 8 -7 3 -22 -11
-14 -13 -26 -28 -26 -33 0 -4 5 -3 11 3 11 11 49 6 49 -6 0 -15 -14 -20 -26
-10 -10 8 -18 0 -33 -33 -11 -24 -20 -38 -21 -32 0 11 -70 14 -70 2 0 -4 -6
-5 -14 -2 -8 3 -12 12 -10 19 3 7 0 16 -7 21 -7 4 -10 3 -6 -3 4 -6 0 -19 -8
-29 -25 -33 -18 -44 28 -44 31 0 38 3 27 10 -8 5 -10 10 -5 11 6 0 20 2 32 5
26 4 35 -6 22 -26 -6 -10 -9 -11 -9 -2 0 6 -5 12 -11 12 -6 0 -9 -6 -6 -12 6
-16 -89 -16 -104 -1 -8 8 22 111 101 354 61 189 134 414 162 499 28 85 57 163
66 173 15 17 40 18 407 14 304 -2 399 -6 430 -18z m175 -168 c0 -9 3 -27 7
-41 10 -40 -10 -13 -23 30 -9 32 -9 37 2 33 8 -3 14 -13 14 -22z m-6 -187 c3
-8 2 -12 -3 -9 -13 7 -23 -28 -15 -49 5 -12 2 -15 -10 -10 -20 7 -20 8 -1 43
8 16 11 31 8 35 -4 3 -2 6 4 6 6 0 14 -7 17 -16z m-53 -97 c-6 -8 -7 -18 -3
-22 4 -5 1 -5 -6 -1 -10 6 -10 11 -1 22 6 8 14 14 16 14 3 0 0 -6 -6 -13z
m-11 -51 c0 -3 -4 -8 -10 -11 -5 -3 -10 -1 -10 4 0 6 5 11 10 11 6 0 10 -2 10
-4z m-34 -33 c-2 -10 -11 -20 -20 -21 -16 -3 -16 -2 1 17 21 25 22 26 19 4z
m-251 -263 c-3 -5 -16 -10 -28 -10 -18 0 -19 2 -7 10 20 13 43 13 35 0z m-28
-35 c0 -8 -4 -15 -8 -15 -4 0 -9 7 -13 15 -3 9 0 15 8 15 7 0 13 -7 13 -15z
m-14 -116 c-6 -6 -9 -19 -6 -28 4 -12 3 -13 -5 -2 -7 9 -12 10 -16 2 -12 -19
-26 -12 -25 12 1 16 3 17 6 5 4 -16 6 -16 26 2 22 21 39 28 20 9z m72 -28 c3
-5 1 -12 -5 -16 -5 -3 -10 -1 -10 5 0 6 -4 8 -10 5 -5 -3 -10 -1 -10 4 0 13
27 14 35 2z m-45 -5 c0 -3 -4 -8 -10 -11 -5 -3 -10 -1 -10 4 0 6 5 11 10 11 6
0 10 -2 10 -4z m-913 -22 c-3 -3 -12 -4 -19 -1 -8 3 -5 6 6 6 11 1 17 -2 13
-5z"/>
<path d="M5820 5542 c-98 -12 -145 -51 -171 -141 -7 -23 -19 -45 -26 -48 -10
-4 -11 -9 -3 -18 8 -10 7 -17 -2 -26 -8 -7 -12 -26 -10 -45 4 -29 8 -33 46
-38 23 -4 126 -7 228 -7 193 0 223 5 275 48 26 21 63 104 63 139 0 48 -27 94
-67 111 -36 16 -265 33 -333 25z m-54 -43 c-24 -15 -56 -47 -56 -57 0 -5 -7
-9 -15 -9 -8 0 -15 2 -15 3 0 11 76 74 89 74 13 -1 13 -3 -3 -11z m399 -49
c23 -22 26 -31 22 -69 -5 -49 -29 -86 -77 -118 -32 -22 -41 -23 -248 -23 -200
0 -214 1 -207 18 4 9 13 33 21 52 62 170 65 172 291 168 167 -3 172 -4 198
-28z m-485 -70 c-8 -5 -17 -7 -19 -4 -3 3 1 9 9 14 8 5 17 7 19 4 3 -3 -1 -9
-9 -14z m-30 -95 c-6 -15 -13 -25 -16 -22 -4 3 0 20 7 37 17 37 24 25 9 -15z"/>
<path d="M6104 5184 c-18 -14 -18 -15 4 -4 12 6 22 13 22 15 0 8 -5 6 -26 -11z"/>
<path d="M6335 5180 c-4 -6 -11 -7 -17 -4 -7 4 -8 2 -4 -4 7 -12 36 -5 36 9 0
12 -7 11 -15 -1z"/>
<path d="M5660 5170 c-9 -6 -10 -10 -3 -10 6 0 15 5 18 10 8 12 4 12 -15 0z"/>
<path d="M5795 5170 c-3 -6 1 -7 9 -4 18 7 21 14 7 14 -6 0 -13 -4 -16 -10z"/>
<path d="M5536 5155 c-9 -26 -7 -32 5 -12 6 10 9 21 6 23 -2 3 -7 -2 -11 -11z"/>
<path d="M5941 5149 c-7 -12 -10 -24 -7 -27 3 -3 6 0 6 6 0 13 41 10 80 -5 23
-9 67 3 55 16 -3 2 -11 -1 -18 -7 -14 -12 -27 -7 -27 10 0 5 5 6 10 3 16 -10
12 1 -6 15 -8 8 -14 9 -13 4 1 -5 1 -16 0 -24 -1 -12 -3 -12 -12 2 -5 10 -16
15 -25 11 -9 -3 -19 -1 -23 5 -4 7 -11 4 -20 -9z"/>
<path d="M6111 5141 c-23 -32 -26 -41 -11 -41 6 0 10 5 10 12 0 6 10 22 22 35
12 13 17 23 10 23 -6 0 -20 -13 -31 -29z"/>
<path d="M5416 5145 c-3 -8 -1 -15 4 -15 6 0 10 7 10 15 0 8 -2 15 -4 15 -2 0
-6 -7 -10 -15z"/>
<path d="M5605 5150 c-16 -7 -17 -9 -3 -9 9 -1 20 4 23 9 7 11 7 11 -20 0z"/>
<path d="M5843 5145 c-4 -5 -3 -7 2 -3 4 4 14 3 20 -2 9 -7 14 -7 18 3 6 15
-32 18 -40 2z"/>
<path d="M5445 5130 c-3 -5 -1 -10 4 -10 6 0 11 5 11 10 0 6 -2 10 -4 10 -3 0
-8 -4 -11 -10z"/>
<path d="M6150 5136 c0 -2 7 -7 16 -10 8 -3 12 -2 9 4 -6 10 -25 14 -25 6z"/>
<path d="M6309 5123 c-13 -16 -12 -17 4 -4 16 13 21 21 13 21 -2 0 -10 -8 -17
-17z"/>
<path d="M5665 5120 c-3 -6 1 -7 9 -4 18 7 21 14 7 14 -6 0 -13 -4 -16 -10z"/>
<path d="M5330 5100 c-6 -11 -8 -20 -6 -20 3 0 10 9 16 20 6 11 8 20 6 20 -3
0 -10 -9 -16 -20z"/>
<path d="M5385 5110 c-3 -5 -1 -10 4 -10 6 0 11 5 11 10 0 6 -2 10 -4 10 -3 0
-8 -4 -11 -10z"/>
<path d="M5699 5103 c-13 -17 -13 -17 6 -3 11 8 22 16 24 17 2 2 0 3 -6 3 -6
0 -17 -8 -24 -17z"/>
<path d="M5752 5100 c-8 -13 -8 -20 -2 -20 6 0 13 7 17 15 9 24 -1 27 -15 5z"/>
<path d="M5828 5113 c6 -2 18 -2 25 0 6 3 1 5 -13 5 -14 0 -19 -2 -12 -5z"/>
<path d="M5933 5110 c-13 -5 -23 -12 -23 -15 0 -9 16 -5 36 10 22 16 19 18
-13 5z"/>
<path d="M6150 5100 c-13 -8 -12 -10 3 -10 9 0 17 5 17 10 0 12 -1 12 -20 0z"/>
<path d="M5540 5090 c-8 -5 -11 -12 -7 -17 5 -4 11 -3 15 3 4 6 14 14 22 17
13 5 13 5 0 6 -8 0 -22 -3 -30 -9z"/>
<path d="M5640 5089 c0 -5 5 -7 10 -4 6 3 10 8 10 11 0 2 -4 4 -10 4 -5 0 -10
-5 -10 -11z"/>
<path d="M6050 5090 c0 -5 5 -10 11 -10 5 0 7 5 4 10 -3 6 -8 10 -11 10 -2 0
-4 -4 -4 -10z"/>
<path d="M5406 5075 c-11 -8 -15 -15 -9 -15 6 0 16 7 23 15 16 19 11 19 -14 0z"/>
<path d="M5499 5078 c-6 -22 -5 -38 3 -38 6 0 8 6 5 14 -3 8 -1 17 6 20 9 3 9
5 0 5 -7 1 -13 0 -14 -1z"/>
<path d="M5600 5070 c0 -5 5 -10 11 -10 5 0 7 5 4 10 -3 6 -8 10 -11 10 -2 0
-4 -4 -4 -10z"/>
<path d="M6017 5073 c-4 -3 -7 -11 -7 -17 0 -6 5 -5 12 2 6 6 9 14 7 17 -3 3
-9 2 -12 -2z"/>
<path d="M6171 5064 c0 -11 3 -14 6 -6 3 7 2 16 -1 19 -3 4 -6 -2 -5 -13z"/>
<path d="M5357 5050 c-9 -11 -13 -20 -8 -20 11 0 35 29 29 35 -2 2 -12 -4 -21
-15z"/>
<path d="M5561 5048 c-14 -23 -14 -23 8 -4 22 20 25 26 13 26 -4 0 -13 -10
-21 -22z"/>
<path d="M5622 5054 c-7 -8 -8 -14 -3 -14 10 0 25 19 20 25 -2 1 -10 -3 -17
-11z"/>
<path d="M5850 5060 c0 -5 -9 -10 -20 -10 -11 0 -20 -4 -20 -8 0 -15 30 -9 47
10 9 11 11 18 5 18 -7 0 -12 -4 -12 -10z"/>
<path d="M5985 5060 c-3 -5 -1 -10 4 -10 6 0 11 5 11 10 0 6 -2 10 -4 10 -3 0
-8 -4 -11 -10z"/>
<path d="M6056 5055 c-3 -8 -12 -15 -21 -15 -8 0 -15 -4 -15 -10 0 -5 -5 -10
-11 -10 -5 0 -7 5 -3 12 5 7 3 8 -5 3 -9 -5 -9 -11 -3 -17 11 -11 72 25 72 43
0 14 -7 11 -14 -6z"/>
<path d="M6130 5050 c-18 -15 -20 -18 -6 -13 14 5 17 3 11 -7 -5 -8 -4 -11 2
-7 8 5 26 48 20 47 -1 0 -13 -9 -27 -20z"/>
<path d="M5443 5045 c-3 -9 -3 -18 -1 -21 3 -3 8 4 11 16 6 23 -1 27 -10 5z"/>
<path d="M5720 5050 c-8 -5 -10 -10 -5 -10 6 0 17 5 25 10 8 5 11 10 5 10 -5
0 -17 -5 -25 -10z"/>
<path d="M6083 5038 c-9 -13 -15 -58 -8 -58 2 0 9 10 16 21 8 15 8 19 0 15
-15 -10 -14 7 1 22 7 7 9 12 6 12 -3 0 -10 -6 -15 -12z"/>
<path d="M5856 5023 c-6 -14 -5 -15 5 -6 7 7 10 15 7 18 -3 3 -9 -2 -12 -12z"/>
<path d="M5363 5007 c-10 -13 -25 -22 -33 -20 -13 4 -13 3 0 -6 10 -7 20 -4
38 14 13 13 33 26 45 28 18 4 18 4 -5 6 -17 1 -33 -7 -45 -22z"/>
<path d="M5956 5017 c3 -10 9 -15 12 -12 3 3 0 11 -7 18 -10 9 -11 8 -5 -6z"/>
<path d="M5300 5010 c0 -5 5 -10 10 -10 6 0 10 5 10 10 0 6 -4 10 -10 10 -5 0
-10 -4 -10 -10z"/>
<path d="M5930 5010 c0 -7 -7 -22 -17 -32 -9 -10 -12 -18 -6 -18 13 0 38 48
30 57 -4 3 -7 0 -7 -7z"/>
<path d="M6035 5010 c-3 -5 -1 -10 4 -10 6 0 11 5 11 10 0 6 -2 10 -4 10 -3 0
-8 -4 -11 -10z"/>
<path d="M5385 4991 c-3 -5 -2 -12 3 -15 5 -3 9 1 9 9 0 17 -3 19 -12 6z"/>
<path d="M5291 4974 c0 -11 3 -14 6 -6 3 7 2 16 -1 19 -3 4 -6 -2 -5 -13z"/>
<path d="M5425 4982 c-6 -4 -18 -20 -28 -35 -18 -27 -18 -28 3 -15 11 7 20 18
20 25 0 7 8 17 18 22 9 6 13 10 7 11 -5 0 -15 -4 -20 -8z"/>
<path d="M5471 4975 c-1 -11 -7 -32 -15 -46 -7 -15 -11 -32 -7 -38 8 -13 35
73 28 91 -3 7 -6 4 -6 -7z"/>
<path d="M5947 4983 c-4 -3 -7 -11 -7 -17 0 -6 5 -5 12 2 6 6 9 14 7 17 -3 3
-9 2 -12 -2z"/>
<path d="M6030 4976 c0 -8 4 -17 9 -20 10 -7 23 19 14 28 -11 11 -23 6 -23 -8z"/>
<path d="M5910 4939 c0 -5 5 -7 10 -4 6 3 10 8 10 11 0 2 -4 4 -10 4 -5 0 -10
-5 -10 -11z"/>
<path d="M5320 4910 c0 -5 -6 -10 -12 -10 -19 -1 -51 -27 -40 -34 5 -3 19 2
30 12 11 9 29 22 39 29 17 11 17 12 1 12 -10 1 -18 -3 -18 -9z"/>
<path d="M5400 4909 c0 -5 5 -7 10 -4 6 3 10 8 10 11 0 2 -4 4 -10 4 -5 0 -10
-5 -10 -11z"/>
<path d="M5360 4902 c0 -5 9 -17 20 -27 19 -17 19 -17 7 9 -12 25 -27 35 -27
18z"/>
<path d="M5303 4865 c-6 -7 -9 -15 -6 -19 3 -3 -1 -8 -10 -12 -13 -4 -13 -9
-4 -18 9 -10 14 -6 24 23 14 40 13 44 -4 26z"/>
<path d="M5356 4855 c-3 -8 -1 -15 4 -15 6 0 10 7 10 15 0 8 -2 15 -4 15 -2 0
-6 -7 -10 -15z"/>
<path d="M6148 4836 c-16 -12 -28 -28 -28 -36 0 -10 4 -8 14 5 8 11 20 16 29
12 9 -3 19 -2 22 3 4 6 -2 10 -12 10 -15 0 -16 2 -3 10 8 5 12 11 10 14 -3 2
-17 -6 -32 -18z"/>
<path d="M5325 4840 c-3 -5 -1 -10 4 -10 6 0 11 5 11 10 0 6 -2 10 -4 10 -3 0
-8 -4 -11 -10z"/>
<path d="M5236 4822 c-3 -5 1 -9 9 -9 8 0 15 4 15 9 0 4 -4 8 -9 8 -6 0 -12
-4 -15 -8z"/>
<path d="M5310 4801 c0 -5 -9 -11 -19 -14 -13 -3 -19 -13 -18 -31 2 -21 6 -25
22 -20 11 4 25 11 30 16 7 7 2 8 -14 3 -17 -5 -22 -4 -19 6 3 8 15 14 27 13
24 -1 23 -1 15 20 -7 17 -24 22 -24 7z"/>
<path d="M6145 4800 c3 -5 10 -10 16 -10 5 0 9 5 9 10 0 6 -7 10 -16 10 -8 0
-12 -4 -9 -10z"/>
<path d="M5225 4790 c-4 -6 1 -7 12 -3 16 6 16 5 4 -10 -7 -9 -9 -17 -3 -17 8
0 22 22 22 36 0 8 -29 4 -35 -6z"/>
<path d="M6173 4786 c-13 -6 -23 -14 -23 -18 0 -11 35 -5 48 8 16 17 2 23 -25
10z"/>
<path d="M5240 4739 c0 -5 5 -7 10 -4 6 3 10 8 10 11 0 2 -4 4 -10 4 -5 0 -10
-5 -10 -11z"/>
<path d="M6003 4735 c5 -14 29 -13 34 2 3 7 -4 11 -16 10 -12 -1 -20 -6 -18
-12z"/>
<path d="M6803 5711 c-21 -22 -26 -37 -122 -336 -199 -620 -211 -665 -197
-700 8 -18 19 -36 25 -39 13 -9 920 -10 942 -1 35 13 97 190 79 225 -26 49
-33 50 -377 50 l-322 0 25 68 c14 37 30 73 36 80 8 9 82 12 310 12 344 0 353
2 385 71 40 87 37 120 -14 147 -15 8 -106 12 -292 12 -236 0 -271 2 -271 15 0
30 58 143 79 155 15 8 115 11 329 9 271 -1 312 1 341 15 61 32 97 170 56 216
-18 20 -30 20 -506 20 -469 0 -489 -1 -506 -19z m980 2 c5 -8 -2 -56 -18 -118
-7 -29 -7 -29 8 -10 9 11 17 15 17 8 0 -6 -15 -22 -32 -35 -33 -23 -35 -23
-330 -23 -164 0 -298 -4 -298 -8 0 -4 -9 -3 -19 3 -25 13 -34 13 -25 -1 4 -7
0 -9 -12 -5 -11 3 -23 2 -29 -2 -25 -18 -67 -117 -72 -169 -6 -51 -4 -56 12
-50 13 5 16 3 11 -8 -6 -17 23 -18 377 -15 153 1 178 -1 183 -15 7 -17 -13
-73 -33 -93 -7 -7 -13 -20 -13 -28 0 -11 -15 -14 -66 -14 -36 0 -63 4 -60 8 6
9 -30 9 -39 0 -4 -3 -98 -4 -211 -1 -181 4 -208 3 -231 -12 -20 -13 -27 -14
-33 -5 -5 8 -16 -4 -30 -36 -30 -66 -51 -134 -44 -145 8 -13 -5 -49 -18 -49
-5 0 -7 8 -4 17 4 10 3 14 -1 9 -4 -4 -8 -18 -8 -29 0 -12 -6 -21 -12 -20 -7
2 -13 -3 -13 -10 0 -13 -45 -37 -69 -37 -11 1 -9 5 6 13 16 9 20 16 13 27 -5
8 -6 18 -4 22 3 4 0 8 -5 8 -6 0 -11 4 -11 10 0 5 6 8 13 6 6 -1 9 -1 4 1 -4
3 -5 9 -2 14 4 5 2 16 -3 25 -6 11 -11 13 -16 5 -4 -6 -1 -11 6 -11 7 -1 3 -9
-11 -20 -13 -11 -19 -20 -14 -20 6 0 14 -10 20 -22 8 -19 6 -26 -13 -43 -25
-21 -32 -40 -11 -30 6 4 4 0 -5 -8 -10 -8 -18 -21 -18 -30 0 -9 -4 -19 -10
-22 -20 -13 -10 -27 15 -21 14 4 25 2 25 -4 0 -5 -11 -10 -24 -10 -14 0 -28
-4 -31 -10 -4 -6 10 -9 34 -8 36 1 45 7 43 29 -2 12 49 54 65 54 9 0 18 6 21
14 3 8 0 11 -7 7 -6 -4 -10 -4 -9 1 2 4 -1 9 -7 10 -6 0 -9 -3 -8 -7 3 -12
-25 -21 -32 -10 -6 10 33 40 51 40 7 0 15 -6 18 -12 3 -7 4 -4 1 7 -2 11 5 31
16 45 l21 25 -14 -25 c-9 -16 -12 -34 -7 -50 10 -36 10 -52 0 -46 -5 3 -20 -3
-32 -14 -13 -11 -19 -19 -13 -20 5 0 14 4 20 9 5 6 14 3 23 -6 12 -13 11 -15
-5 -9 -19 6 -44 -5 -47 -20 -1 -4 -10 -9 -19 -9 -34 -3 -28 -12 7 -13 23 -1
38 4 41 13 8 19 54 20 54 1 0 -8 7 -16 15 -20 17 -6 21 9 5 19 -8 5 -8 11 0
20 8 9 8 15 0 18 -6 3 -5 4 2 3 7 -2 12 -13 10 -24 -2 -12 0 -22 5 -23 90 -11
234 -13 257 -4 15 6 17 5 11 -5 -6 -9 -4 -11 4 -5 9 5 10 10 2 18 -8 8 -16 8
-29 1 -9 -6 -26 -8 -37 -4 -16 5 -11 8 20 14 41 8 65 22 65 37 0 14 -24 6 -31
-11 -5 -11 -8 -10 -18 8 -6 12 -8 22 -4 21 4 -1 17 0 28 1 13 1 6 6 -20 15
-22 7 -32 13 -23 14 9 1 24 4 34 8 12 4 15 3 10 -5 -4 -7 -1 -12 8 -12 9 0 16
-6 16 -14 0 -8 7 -16 15 -20 8 -3 15 -1 15 5 0 6 5 7 12 3 7 -5 9 -2 6 8 -5
11 0 15 15 14 12 -1 25 3 29 9 5 6 11 6 20 -3 9 -9 8 -12 -6 -12 -10 0 -14 -5
-11 -11 4 -6 -2 -13 -14 -16 -11 -3 -18 -9 -16 -14 3 -4 13 -5 23 -2 14 6 15
4 4 -9 -10 -13 -10 -17 0 -21 9 -4 7 -6 -4 -6 -9 -1 -18 6 -20 15 -3 13 -6 12
-24 -5 -12 -11 -24 -17 -28 -14 -3 3 5 14 17 23 12 10 18 22 14 27 -5 4 -14 1
-20 -8 -7 -9 -18 -14 -24 -12 -15 5 -17 -13 -3 -22 6 -4 8 -9 6 -13 -2 -4 25
-7 60 -7 35 0 60 2 54 3 -5 2 -10 13 -10 23 0 11 5 17 10 14 6 -4 8 -9 6 -13
-2 -4 2 -12 9 -19 8 -7 15 -8 17 -3 2 6 15 6 33 2 17 -5 45 -5 63 -1 31 7 53
-3 32 -16 -8 -5 -280 -8 -470 -5 -30 1 -140 2 -243 3 -228 2 -226 1 -188 114
11 32 27 85 37 118 23 81 67 223 199 647 20 65 45 128 56 142 l19 24 474 2
c261 0 477 -3 479 -7z m37 -61 c0 -21 -2 -24 -10 -12 -13 20 -13 53 0 45 6 -3
10 -18 10 -33z m-12 -63 c-3 -8 -7 -3 -11 10 -4 17 -3 21 5 13 5 -5 8 -16 6
-23z m-734 -87 c3 -5 -1 -9 -9 -9 -8 0 -12 4 -9 9 3 4 7 8 9 8 2 0 6 -4 9 -8z
m373 2 c-3 -3 -12 -4 -19 -1 -8 3 -5 6 6 6 11 1 17 -2 13 -5z m140 -296 c-3
-8 -6 -5 -6 6 -1 11 2 17 5 13 3 -3 4 -12 1 -19z m-270 -114 c-3 -3 -12 -4
-19 -1 -8 3 -5 6 6 6 11 1 17 -2 13 -5z m-176 -204 c249 -4 320 -8 333 -19 19
-16 17 -41 -4 -58 -21 -17 -30 -16 -30 3 0 10 -6 14 -15 10 -9 -3 -15 0 -15 9
0 11 -5 10 -20 -5 -27 -27 -25 -35 6 -38 14 -1 23 2 19 8 -3 6 -1 10 5 10 6 0
13 -6 16 -14 3 -8 13 -12 25 -9 10 3 19 0 19 -6 0 -5 -7 -8 -15 -5 -14 6 -20
-11 -16 -38 0 -5 -3 -8 -9 -8 -5 0 -10 7 -10 15 0 17 -2 18 -24 9 -9 -3 -16
-11 -16 -16 0 -6 6 -8 13 -5 8 3 14 -1 14 -9 0 -8 -9 -14 -19 -14 -11 0 -16 5
-13 10 3 6 1 10 -4 10 -6 0 -11 -7 -11 -15 0 -8 -4 -15 -10 -15 -14 0 -13 13
3 29 6 6 12 17 12 24 0 7 14 12 32 12 17 0 29 4 26 8 -3 5 -19 7 -35 5 -25 -4
-30 -1 -35 23 -5 25 -8 27 -26 18 -17 -10 -19 -9 -14 5 4 9 10 23 13 31 7 17
-22 21 -46 5 -13 -8 -13 -10 -1 -10 11 0 9 -4 -4 -14 -11 -8 -23 -12 -27 -10
-5 3 -8 0 -8 -6 0 -7 -7 -10 -15 -7 -8 4 -17 2 -20 -4 -4 -5 -11 -7 -16 -3 -6
3 -19 -2 -29 -11 -13 -12 -18 -13 -16 -3 3 24 18 39 31 34 19 -7 91 29 76 38
-7 4 -18 3 -25 -3 -7 -6 -16 -7 -20 -3 -11 10 -146 12 -146 1 0 -5 7 -9 16 -9
9 0 12 -5 8 -12 -6 -10 -4 -10 7 0 7 6 20 12 28 12 27 0 -27 -31 -62 -36 -24
-3 -28 -1 -17 7 12 8 12 10 -4 7 -24 -4 -34 -28 -12 -28 10 0 13 -6 10 -15 -4
-10 0 -15 11 -15 14 0 13 -4 -6 -19 -27 -22 -38 -19 -19 4 8 9 8 15 2 15 -6 0
-14 -6 -18 -12 -11 -18 -12 -48 -2 -48 5 0 7 -4 3 -9 -3 -6 -16 -4 -31 4 -15
8 -35 10 -46 6 -11 -4 -33 -5 -48 -3 -26 4 -28 7 -19 29 12 32 11 53 -2 31
-12 -21 -39 -13 -36 10 1 10 -2 18 -8 19 -5 1 -9 -5 -7 -13 2 -8 -2 -14 -8
-14 -5 0 -10 4 -10 9 0 5 -3 17 -7 27 -5 14 -2 16 21 12 14 -3 29 -2 31 2 6
10 -24 22 -36 14 -5 -3 -9 1 -9 9 0 8 6 14 13 13 6 0 12 4 12 9 0 6 -4 9 -10
8 -6 -2 -11 6 -12 17 -1 14 2 18 10 13 7 -5 154 -10 328 -13z m24 -40 c3 -5 1
-10 -4 -10 -6 0 -11 5 -11 10 0 6 2 10 4 10 3 0 8 -4 11 -10z m45 0 c0 -5 -8
-10 -17 -10 -15 0 -16 2 -3 10 19 12 20 12 20 0z m-60 -24 c0 -3 -4 -8 -10
-11 -5 -3 -10 -1 -10 4 0 6 5 11 10 11 6 0 10 -2 10 -4z m160 -1 c0 -3 -7 -17
-16 -30 -15 -23 -14 -24 15 -39 16 -9 33 -16 36 -16 14 0 -23 28 -41 32 -18 4
-17 5 5 17 17 10 26 10 35 1 8 -8 6 -9 -8 -4 -13 5 -17 4 -12 -4 4 -7 13 -12
21 -12 16 0 13 -32 -4 -38 -6 -2 -18 2 -26 8 -11 9 -15 9 -15 1 0 -6 -5 -11
-11 -11 -5 0 -7 5 -3 11 4 8 0 9 -15 4 -12 -4 -21 -2 -21 4 0 6 5 11 12 11 6
0 8 3 5 7 -4 3 -1 13 6 21 9 13 9 14 0 8 -7 -4 -13 -2 -13 3 0 6 7 11 15 11 8
0 15 5 15 10 0 6 5 10 10 10 6 0 10 -2 10 -5z m-611 -52 c7 -6 -33 -32 -50
-33 -11 0 -15 7 -14 23 1 12 3 23 4 25 1 3 54 -9 60 -15z m109 -38 c-3 -3 -9
2 -12 12 -6 14 -5 15 5 6 7 -7 10 -15 7 -18z m266 -7 c-3 -4 -9 -8 -15 -8 -5
0 -9 4 -9 8 0 5 7 9 15 9 8 0 12 -4 9 -9z m246 -12 c0 -2 -9 -6 -20 -9 -11 -3
-18 -1 -14 4 5 9 34 13 34 5z"/>
<path d="M7165 5641 c-3 -6 -11 -9 -16 -6 -5 4 -9 1 -9 -4 0 -6 6 -11 14 -11
16 0 31 18 23 26 -3 3 -8 0 -12 -5z"/>
<path d="M6939 5393 c-13 -16 -12 -17 4 -4 9 7 17 15 17 17 0 8 -8 3 -21 -13z"/>
<path d="M6726 5285 c-3 -8 -1 -15 4 -15 6 0 10 7 10 15 0 8 -2 15 -4 15 -2 0
-6 -7 -10 -15z"/>
<path d="M6870 5290 c0 -5 5 -10 11 -10 5 0 7 5 4 10 -3 6 -8 10 -11 10 -2 0
-4 -4 -4 -10z"/>
<path d="M6846 5267 c3 -10 9 -15 12 -12 3 3 0 11 -7 18 -10 9 -11 8 -5 -6z"/>
<path d="M7000 5251 c0 -6 4 -13 10 -16 6 -3 7 1 4 9 -7 18 -14 21 -14 7z"/>
<path d="M7347 5246 c-4 -10 1 -12 14 -9 23 6 24 9 5 16 -8 3 -17 0 -19 -7z"/>
<path d="M7208 5243 c7 -3 16 -2 19 1 4 3 -2 6 -13 5 -11 0 -14 -3 -6 -6z"/>
<path d="M7456 5238 c3 -5 10 -6 15 -3 13 9 11 12 -6 12 -8 0 -12 -4 -9 -9z"/>
<path d="M6890 5230 c-9 -6 -10 -10 -3 -10 6 0 15 5 18 10 8 12 4 12 -15 0z"/>
<path d="M6970 5230 c-13 -8 -12 -10 3 -10 9 0 17 5 17 10 0 12 -1 12 -20 0z"/>
<path d="M6710 5220 c-9 -6 -10 -10 -3 -10 6 0 15 5 18 10 8 12 4 12 -15 0z"/>
<path d="M6846 5213 c-6 -14 -5 -15 5 -6 7 7 10 15 7 18 -3 3 -9 -2 -12 -12z"/>
<path d="M7265 5220 c-3 -6 1 -7 9 -4 18 7 21 14 7 14 -6 0 -13 -4 -16 -10z"/>
<path d="M7485 5220 c-3 -6 1 -7 9 -4 18 7 21 14 7 14 -6 0 -13 -4 -16 -10z"/>
<path d="M7055 5210 c-3 -6 1 -7 9 -4 18 7 21 14 7 14 -6 0 -13 -4 -16 -10z"/>
<path d="M7090 5210 c0 -5 7 -7 15 -4 8 4 15 8 15 10 0 2 -7 4 -15 4 -8 0 -15
-4 -15 -10z"/>
<path d="M7408 5213 c7 -3 16 -2 19 1 4 3 -2 6 -13 5 -11 0 -14 -3 -6 -6z"/>
<path d="M6720 5185 c-7 -9 -11 -17 -9 -20 3 -2 10 5 17 15 14 24 10 26 -8 5z"/>
<path d="M6850 5185 c-7 -9 -11 -17 -9 -20 3 -2 10 5 17 15 14 24 10 26 -8 5z"/>
<path d="M7155 5190 c-3 -5 -1 -10 4 -10 6 0 11 5 11 10 0 6 -2 10 -4 10 -3 0
-8 -4 -11 -10z"/>
<path d="M6905 5180 c-4 -6 -11 -8 -16 -5 -5 4 -9 1 -9 -4 0 -15 11 -13 34 4
11 8 15 15 9 15 -7 0 -15 -5 -18 -10z"/>
<path d="M7285 5180 c-3 -6 1 -7 9 -4 18 7 21 14 7 14 -6 0 -13 -4 -16 -10z"/>
<path d="M7350 5180 c-9 -6 -10 -10 -3 -10 6 0 15 5 18 10 8 12 4 12 -15 0z"/>
<path d="M6770 5150 c-8 -5 -12 -12 -9 -15 4 -3 12 1 19 10 14 17 11 19 -10 5z"/>
<path d="M6825 5140 c-3 -5 -1 -10 4 -10 6 0 11 5 11 10 0 6 -2 10 -4 10 -3 0
-8 -4 -11 -10z"/>
<path d="M6785 5130 c-3 -6 1 -7 9 -4 18 7 21 14 7 14 -6 0 -13 -4 -16 -10z"/>
<path d="M6736 5112 c-2 -4 -1 -14 3 -21 6 -9 11 -10 15 -2 4 6 2 11 -4 11 -6
0 -8 5 -5 10 3 6 4 10 1 10 -3 0 -7 -4 -10 -8z"/>
<path d="M6790 5100 c-8 -5 -10 -10 -5 -10 6 0 17 5 25 10 8 5 11 10 5 10 -5
0 -17 -5 -25 -10z"/>
<path d="M6790 5070 c0 -5 7 -7 15 -4 8 4 15 8 15 10 0 2 -7 4 -15 4 -8 0 -15
-4 -15 -10z"/>
<path d="M6704 5048 c-10 -16 2 -18 21 -5 16 12 16 14 1 14 -9 0 -19 -4 -22
-9z"/>
<path d="M6750 5049 c0 -5 5 -7 10 -4 6 3 10 8 10 11 0 2 -4 4 -10 4 -5 0 -10
-5 -10 -11z"/>
<path d="M6785 5040 c-3 -6 1 -7 9 -4 18 7 21 14 7 14 -6 0 -13 -4 -16 -10z"/>
<path d="M6661 5026 c-9 -11 -9 -16 1 -22 7 -4 10 -4 6 1 -4 4 -3 14 3 22 6 7
9 13 6 13 -2 0 -10 -6 -16 -14z"/>
<path d="M6711 5017 c-8 -10 -7 -14 4 -14 8 0 12 4 9 8 -2 4 2 10 8 12 8 4 9
6 2 6 -6 1 -17 -5 -23 -12z"/>
<path d="M6627 5001 c-3 -13 -1 -18 9 -14 7 2 10 11 7 19 -7 19 -10 18 -16 -5z"/>
<path d="M6765 5010 c-4 -6 -11 -8 -16 -5 -5 4 -9 -1 -9 -10 0 -9 5 -13 11 -9
8 4 9 -1 4 -17 -7 -23 -7 -23 8 -4 9 11 11 22 6 23 -6 3 -5 10 2 18 6 8 9 14
6 14 -3 0 -9 -5 -12 -10z"/>
<path d="M6666 4982 c-3 -5 1 -9 9 -9 8 0 12 4 9 9 -3 4 -7 8 -9 8 -2 0 -6 -4
-9 -8z"/>
<path d="M6606 4943 c-6 -14 -5 -15 5 -6 7 7 10 15 7 18 -3 3 -9 -2 -12 -12z"/>
<path d="M6765 4940 c-3 -5 1 -10 10 -10 9 0 13 5 10 10 -3 6 -8 10 -10 10 -2
0 -7 -4 -10 -10z"/>
<path d="M6626 4931 c-14 -22 -25 -62 -16 -56 6 3 10 11 10 17 0 6 7 20 17 30
9 10 11 18 5 18 -6 0 -13 -4 -16 -9z"/>
<path d="M6733 4933 c4 -3 0 -17 -8 -30 -9 -13 -13 -23 -9 -23 4 0 1 -7 -6
-15 -10 -12 -9 -15 4 -15 10 0 15 4 11 9 -3 5 -1 12 5 16 6 4 8 11 5 16 -4 5
-1 9 4 9 6 0 11 9 11 20 0 11 -5 20 -12 20 -6 0 -8 -3 -5 -7z"/>
<path d="M6582 4897 c-6 -6 -13 -26 -17 -42 -7 -28 -6 -29 7 -10 14 18 30 65
23 65 -1 0 -7 -6 -13 -13z"/>
<path d="M6620 4858 c0 -14 18 -17 28 -5 8 10 6 13 -9 13 -10 0 -19 -4 -19 -8z"/>
<path d="M6600 4853 c0 -7 0 -16 -1 -20 0 -5 -10 -13 -22 -20 -14 -8 -17 -12
-7 -12 8 0 23 6 33 14 15 10 17 18 8 32 -6 10 -11 12 -11 6z"/>
<path d="M6593 4791 c-14 -12 -18 -22 -12 -28 6 -6 4 -14 -6 -23 -13 -11 -15
-10 -10 2 4 10 0 15 -12 15 -22 0 -33 -15 -33 -44 0 -19 6 -23 29 -23 32 0 47
15 43 43 -2 9 2 17 9 17 7 0 10 3 6 6 -3 3 -2 17 3 30 11 28 11 28 -17 5z
m-51 -63 c-7 -7 -12 -8 -12 -2 0 14 12 26 19 19 2 -3 -1 -11 -7 -17z m28 -18
c-20 -13 -33 -13 -25 0 3 6 14 10 23 10 15 0 15 -2 2 -10z"/>
<path d="M7197 4766 c-4 -10 -1 -13 9 -9 7 3 14 9 14 14 0 14 -17 10 -23 -5z"/>
<path d="M6690 4730 c0 -5 4 -10 9 -10 6 0 13 5 16 10 3 6 -1 10 -9 10 -9 0
-16 -4 -16 -10z"/>
<path d="M6771 4701 c-7 -5 -9 -11 -4 -14 5 -3 15 -2 22 2 7 5 9 11 4 14 -5 3
-15 2 -22 -2z"/>
<path d="M6847 4855 c-8 -19 5 -26 23 -14 13 7 13 9 0 9 -13 0 -13 1 0 10 13
8 13 10 -1 10 -9 0 -19 -7 -22 -15z"/>
<path d="M6890 4851 c0 -9 -9 -22 -20 -29 -11 -7 -20 -22 -20 -35 1 -21 1 -21
15 3 7 14 25 32 39 40 31 16 33 26 6 33 -14 4 -20 0 -20 -12z"/>
<path d="M6945 4845 c1 -17 -3 -25 -14 -25 -9 0 -23 -5 -31 -10 -13 -9 -13
-11 0 -20 13 -9 13 -11 0 -19 -8 -6 -11 -13 -7 -17 3 -4 14 -1 22 6 11 9 19
10 26 3 7 -7 2 -13 -18 -18 -15 -5 -31 -8 -35 -7 -5 1 -8 -2 -8 -8 0 -14 37
-12 43 3 4 8 8 8 14 2 4 -5 21 -11 37 -12 22 -2 26 1 18 9 -13 13 -16 31 -4
25 4 -2 15 4 24 14 14 15 14 18 2 23 -9 3 -12 1 -9 -4 3 -6 -1 -10 -10 -10 -8
0 -20 -10 -25 -22 -7 -19 -9 -20 -9 -5 -1 11 13 32 30 48 18 16 28 33 24 37
-4 4 -10 1 -12 -5 -3 -7 -9 -13 -15 -13 -6 0 -3 9 7 20 13 14 21 17 26 9 8
-13 39 -5 39 10 0 12 -59 11 -66 -1 -3 -4 -14 -4 -24 2 -27 14 -29 13 -25 -15z
m25 -5 c0 -5 -4 -10 -10 -10 -5 0 -10 5 -10 10 0 6 5 10 10 10 6 0 10 -4 10
-10z m0 -30 c0 -5 -4 -10 -10 -10 -5 0 -10 5 -10 10 0 6 5 10 10 10 6 0 10 -4
10 -10z m-10 -32 c0 -16 -20 -7 -30 12 -10 19 -10 20 9 8 12 -7 21 -16 21 -20z"/>
<path d="M7347 4856 c-3 -8 1 -17 9 -20 24 -9 31 -7 31 9 0 12 -3 12 -16 2
-12 -10 -14 -9 -8 6 3 9 2 17 -2 17 -5 0 -11 -6 -14 -14z"/>
<path d="M7440 4841 c0 -6 5 -13 10 -16 6 -3 10 1 10 9 0 9 -4 16 -10 16 -5 0
-10 -4 -10 -9z"/>
<path d="M6645 4760 c4 -6 11 -8 16 -5 14 9 11 15 -7 15 -8 0 -12 -5 -9 -10z"/>
<path d="M7992 5712 c-10 -10 -64 -157 -121 -333 -57 -173 -130 -395 -162
-493 -61 -185 -68 -226 -46 -244 17 -14 253 -20 266 -7 5 6 33 70 62 144 28
73 60 142 70 152 16 16 35 19 122 19 62 0 112 -5 127 -13 14 -7 40 -37 57 -67
18 -30 38 -62 44 -71 6 -9 26 -43 43 -74 48 -90 57 -94 219 -97 151 -3 157 -1
157 56 0 16 -27 84 -60 152 -33 68 -60 125 -60 128 0 2 30 21 68 41 90 50 136
88 181 149 73 99 111 204 111 312 0 98 -56 186 -148 231 l-57 28 -427 3 c-405
3 -428 2 -446 -16z m888 -13 c19 -9 45 -26 58 -38 12 -12 22 -18 22 -14 0 14
31 -37 35 -58 3 -12 9 -37 15 -55 36 -108 -92 -382 -197 -425 -18 -7 -33 -16
-33 -20 0 -4 -10 -11 -22 -14 -28 -8 -128 -56 -128 -61 0 -2 7 -1 15 2 11 5
13 2 9 -10 -3 -9 -10 -16 -15 -16 -4 0 -6 -6 -3 -14 3 -8 0 -17 -7 -22 -8 -5
-10 -3 -4 6 6 10 4 12 -9 7 -10 -4 -21 -7 -25 -7 -9 0 -8 -46 2 -56 4 -4 7 5
7 19 0 15 5 27 11 27 5 0 7 -5 3 -11 -4 -8 0 -8 15 0 19 11 23 8 38 -24 11
-22 14 -39 8 -43 -18 -13 -36 -52 -24 -52 5 0 7 -4 4 -10 -8 -12 -16 -12 -34
-1 -12 8 -11 13 10 30 13 11 18 20 12 21 -7 0 -13 -4 -13 -10 0 -5 -5 -10 -10
-10 -6 0 -9 10 -7 23 2 12 2 16 0 10 -3 -7 -8 -13 -13 -13 -5 0 -7 -7 -4 -15
8 -19 -6 -19 -31 -1 -18 13 -17 14 11 29 24 13 26 16 9 17 -11 0 -27 -9 -35
-19 -7 -11 -17 -18 -22 -15 -13 8 -9 44 7 61 9 8 13 18 10 21 -3 4 -10 0 -15
-8 -13 -20 -23 -6 -15 21 6 17 9 19 17 8 8 -11 9 -11 5 2 -3 9 0 22 6 29 10
10 7 10 -10 1 -13 -6 -23 -18 -23 -26 0 -8 -4 -15 -10 -15 -5 0 -7 -6 -5 -12
3 -7 -6 -18 -20 -25 -14 -6 -25 -7 -25 -2 0 5 7 12 15 15 8 4 15 11 15 17 0 6
-13 -2 -29 -17 l-28 -27 -17 26 c-9 14 -14 30 -11 35 3 5 1 11 -5 15 -6 4 -8
11 -5 16 4 5 2 9 -4 9 -5 0 -8 -10 -7 -22 4 -35 45 -108 60 -108 9 0 12 -7 9
-19 -9 -36 34 -12 50 27 l15 37 1 -32 c1 -17 -5 -34 -11 -36 -7 -3 -3 -6 10
-6 33 -1 64 -20 56 -33 -5 -8 -1 -9 11 -4 30 11 53 -2 48 -27 -3 -17 -11 -22
-34 -21 -40 1 -54 16 -40 43 12 21 -2 31 -14 11 -4 -6 -17 -4 -35 5 -34 18
-40 18 -40 4 0 -5 5 -7 10 -4 6 3 10 2 10 -4 0 -6 11 -13 25 -17 14 -3 25 -13
25 -23 0 -14 -2 -14 -10 -1 -9 13 -10 13 -9 0 0 -8 4 -24 9 -35 8 -19 9 -19 9
3 1 24 21 31 21 7 0 -18 11 -19 30 -2 12 10 12 9 2 -4 -20 -26 -2 -28 25 -3
14 13 28 22 31 19 3 -3 -7 -16 -22 -30 -21 -20 -31 -23 -41 -15 -10 8 -19 8
-35 0 -26 -14 -40 -5 -40 25 0 18 -4 23 -16 18 -12 -4 -15 -2 -12 8 3 8 11 13
17 12 6 -2 11 1 11 6 0 11 -29 23 -40 16 -11 -7 -102 154 -94 166 3 5 2 9 -3
8 -20 -3 -33 2 -31 13 2 8 -8 12 -29 11 -25 -1 -33 3 -33 15 0 10 -3 13 -8 6
-4 -6 -49 -10 -119 -10 l-111 1 -26 -30 c-14 -16 -26 -36 -26 -43 0 -7 -7 -15
-15 -18 -10 -4 -13 -13 -10 -25 4 -11 2 -19 -4 -19 -5 0 -16 -3 -25 -6 -9 -3
-16 -1 -16 4 0 6 8 13 18 15 15 4 15 5 -1 6 -11 1 -21 -7 -24 -19 -3 -11 -10
-20 -15 -20 -6 0 -8 6 -5 14 5 12 0 13 -26 4 -41 -14 -50 -23 -15 -14 23 5 27
3 22 -11 -4 -11 -2 -14 3 -8 4 6 18 10 31 9 12 -1 25 3 28 7 3 5 9 9 14 9 9 0
-7 -48 -20 -60 -3 -3 -5 -12 -5 -20 0 -8 -4 -14 -10 -13 -5 1 -10 -12 -11 -29
-2 -48 -25 -62 -109 -66 -41 -2 -83 -1 -92 3 -10 5 -22 7 -26 6 -11 -2 3 43
14 47 5 2 9 12 9 23 0 11 4 27 9 37 6 9 22 60 37 112 15 52 37 123 50 157 13
34 24 66 24 71 0 5 27 89 60 187 32 97 72 220 87 273 15 53 35 104 45 114 16
16 45 17 430 15 358 -2 418 -4 448 -18z m150 -141 c0 -5 -4 -8 -10 -8 -5 0
-10 10 -10 23 0 18 2 19 10 7 5 -8 10 -18 10 -22z m17 -120 c-2 -18 -4 -6 -4
27 0 33 2 48 4 33 2 -15 2 -42 0 -60z m-54 -195 c-11 -15 -23 -36 -26 -45 -4
-10 -12 -18 -18 -18 -8 0 -8 4 1 15 7 8 10 22 6 30 -3 9 -2 13 4 10 5 -3 17 6
26 20 9 14 19 23 21 21 3 -3 -4 -17 -14 -33z m-510 -345 c-8 -13 -9 -18 -12
-38 0 -5 -5 -10 -11 -10 -5 0 -7 7 -4 15 4 10 0 15 -16 15 -12 0 -18 4 -15 10
4 6 11 8 16 5 5 -4 17 -1 26 4 24 14 26 13 16 -1z m230 -63 c16 -33 14 -65 -4
-65 -4 0 -5 -8 -2 -17 5 -12 1 -11 -15 5 -20 20 -42 29 -42 17 0 -2 10 -14 23
-25 19 -18 19 -20 3 -14 -16 6 -18 4 -13 -9 3 -9 3 -17 -2 -17 -15 0 -21 13
-11 26 8 8 6 16 -5 27 -14 15 -14 17 3 26 11 6 24 6 35 0 18 -11 37 -4 37 12
0 5 -5 9 -11 9 -5 0 -7 -4 -4 -10 3 -5 1 -10 -4 -10 -14 0 -14 17 -1 25 6 4 7
11 4 17 -4 6 -9 5 -15 -3 -11 -19 -22 -4 -14 20 9 30 19 26 38 -14z m37 -75
c0 -5 -2 -10 -4 -10 -3 0 -8 5 -11 10 -3 6 -1 10 4 10 6 0 11 -4 11 -10z m6
-29 c-4 -5 0 -11 6 -14 7 -2 1 -4 -14 -4 -31 -1 -38 13 -10 20 9 3 18 5 20 6
2 0 1 -3 -2 -8z m-17 -40 c23 -5 45 -12 48 -15 11 -11 -38 -6 -59 5 -15 8 -22
8 -27 0 -11 -18 -163 -10 -169 9 -5 13 -3 13 12 1 15 -12 16 -12 10 5 -7 18
-6 18 12 3 10 -8 25 -14 32 -13 6 1 28 2 47 3 26 1 35 5 35 19 0 11 3 13 8 5
4 -7 27 -16 51 -22z"/>
<path d="M8766 5612 c-3 -5 1 -9 9 -9 8 0 12 4 9 9 -3 4 -7 8 -9 8 -2 0 -6 -4
-9 -8z"/>
<path d="M8470 5569 c0 -5 5 -7 10 -4 6 3 10 8 10 11 0 2 -4 4 -10 4 -5 0 -10
-5 -10 -11z"/>
<path d="M8025 5540 c-3 -5 -1 -10 4 -10 6 0 11 5 11 10 0 6 -2 10 -4 10 -3 0
-8 -4 -11 -10z"/>
<path d="M8255 5530 c-36 -15 -69 -60 -93 -128 -32 -92 -47 -160 -38 -169 10
-10 406 -17 462 -8 59 9 130 58 144 100 33 99 4 168 -85 202 -35 13 -359 16
-390 3z m-2 -35 c-3 -9 -8 -14 -10 -11 -3 3 -2 9 2 15 9 16 15 13 8 -4z m407
-24 c13 -4 33 -21 43 -39 17 -29 18 -38 7 -77 -15 -55 -51 -92 -101 -105 -21
-6 -125 -9 -242 -8 l-204 3 41 104 c35 89 46 107 71 117 32 14 339 18 385 5z
m-449 -24 c-10 -9 -11 -8 -5 6 3 10 9 15 12 12 3 -3 0 -11 -7 -18z m-44 -119
c-3 -8 -6 -5 -6 6 -1 11 2 17 5 13 3 -3 4 -12 1 -19z"/>
<path d="M8945 5410 c-3 -5 -1 -10 4 -10 6 0 11 5 11 10 0 6 -2 10 -4 10 -3 0
-8 -4 -11 -10z"/>
<path d="M8859 5373 c-13 -17 -13 -17 6 -3 11 8 22 16 24 17 2 2 0 3 -6 3 -6
0 -17 -8 -24 -17z"/>
<path d="M8930 5360 c-9 -6 -10 -10 -3 -10 6 0 15 5 18 10 8 12 4 12 -15 0z"/>
<path d="M8795 5339 c-4 -6 -5 -12 -2 -15 2 -3 7 2 10 11 7 17 1 20 -8 4z"/>
<path d="M8040 5329 c0 -5 5 -7 10 -4 6 3 10 8 10 11 0 2 -4 4 -10 4 -5 0 -10
-5 -10 -11z"/>
<path d="M8820 5329 c0 -5 5 -7 10 -4 6 3 10 8 10 11 0 2 -4 4 -10 4 -5 0 -10
-5 -10 -11z"/>
<path d="M8920 5250 c-6 -11 -8 -20 -6 -20 3 0 10 9 16 20 6 11 8 20 6 20 -3
0 -10 -9 -16 -20z"/>
<path d="M8860 5249 c0 -5 5 -7 10 -4 6 3 10 8 10 11 0 2 -4 4 -10 4 -5 0 -10
-5 -10 -11z"/>
<path d="M8156 5186 c4 -16 2 -26 -5 -26 -6 0 -8 -6 -5 -14 3 -8 1 -17 -5 -21
-6 -3 -11 -11 -11 -17 0 -7 6 -6 15 2 8 7 15 20 15 29 0 9 5 22 11 28 9 9 7
16 -5 29 -16 15 -17 15 -10 -10z"/>
<path d="M8459 5183 c-13 -16 -12 -17 4 -4 16 13 21 21 13 21 -2 0 -10 -8 -17
-17z"/>
<path d="M8730 5190 c-8 -5 -12 -12 -9 -15 4 -3 12 1 19 10 14 17 11 19 -10 5z"/>
<path d="M8831 5184 c0 -11 3 -14 6 -6 3 7 2 16 -1 19 -3 4 -6 -2 -5 -13z"/>
<path d="M7947 5179 c7 -7 15 -10 18 -7 3 3 -2 9 -12 12 -14 6 -15 5 -6 -5z"/>
<path d="M8425 5179 c-4 -6 -5 -12 -2 -15 2 -3 7 2 10 11 7 17 1 20 -8 4z"/>
<path d="M8485 5179 c-11 -17 1 -21 15 -4 8 9 8 15 2 15 -6 0 -14 -5 -17 -11z"/>
<path d="M8532 5170 c-20 -11 -28 -20 -20 -23 9 -3 4 -12 -15 -26 -15 -13 -25
-27 -22 -32 10 -15 -7 -10 -27 8 -17 16 -18 15 -15 -5 4 -25 27 -54 27 -34 0
7 7 12 16 12 10 0 14 6 11 15 -8 19 13 31 25 14 7 -12 9 -11 7 1 -2 28 13 59
32 65 10 4 19 11 19 16 0 5 -1 8 -2 8 -2 -1 -18 -9 -36 -19z"/>
<path d="M7910 5169 c0 -5 5 -7 10 -4 6 3 10 8 10 11 0 2 -4 4 -10 4 -5 0 -10
-5 -10 -11z"/>
<path d="M8310 5169 c0 -5 5 -7 10 -4 6 3 10 8 10 11 0 2 -4 4 -10 4 -5 0 -10
-5 -10 -11z"/>
<path d="M8591 5164 c0 -11 3 -14 6 -6 3 7 2 16 -1 19 -3 4 -6 -2 -5 -13z"/>
<path d="M8776 5167 c3 -10 9 -15 12 -12 3 3 0 11 -7 18 -10 9 -11 8 -5 -6z"/>
<path d="M7981 5154 c0 -11 3 -14 6 -6 3 7 2 16 -1 19 -3 4 -6 -2 -5 -13z"/>
<path d="M8658 5158 c11 -14 10 -17 -5 -21 -15 -4 -14 -5 3 -6 12 0 25 7 28
16 4 10 4 14 0 10 -4 -4 -14 -1 -23 6 -14 10 -14 10 -3 -5z"/>
<path d="M7906 5134 c-15 -14 -14 -34 1 -34 4 0 3 3 0 7 -4 3 0 15 10 25 20
22 11 24 -11 2z"/>
<path d="M8205 5140 c-8 -13 5 -13 25 0 13 8 13 10 -2 10 -9 0 -20 -4 -23 -10z"/>
<path d="M8295 5140 c-3 -5 -1 -10 4 -10 6 0 11 5 11 10 0 6 -2 10 -4 10 -3 0
-8 -4 -11 -10z"/>
<path d="M8406 5133 c-10 -24 -7 -28 7 -9 12 17 15 17 29 2 14 -14 17 -14 28
0 7 8 10 17 6 21 -3 3 -6 1 -6 -5 0 -7 -5 -12 -11 -12 -5 0 -8 3 -6 8 3 4 -5
8 -18 8 -13 1 -26 -5 -29 -13z"/>
<path d="M8570 5141 c0 -5 5 -13 10 -16 6 -3 10 -2 10 4 0 5 -4 13 -10 16 -5
3 -10 2 -10 -4z"/>
<path d="M8611 5132 c-8 -14 -6 -19 5 -19 7 0 14 9 14 19 0 10 -2 18 -5 18 -2
0 -9 -8 -14 -18z"/>
<path d="M7941 5122 c-6 -12 -11 -28 -11 -36 0 -9 -4 -16 -10 -16 -5 0 -10 -4
-10 -10 0 -6 10 -5 25 2 19 8 22 14 13 19 -11 7 -10 12 0 30 7 11 11 23 9 26
-3 3 -10 -4 -16 -15z"/>
<path d="M8040 5140 c-8 -26 -7 -41 2 -32 6 6 8 16 5 24 -3 7 -6 11 -7 8z"/>
<path d="M8060 5129 c0 -5 5 -7 10 -4 6 3 10 8 10 11 0 2 -4 4 -10 4 -5 0 -10
-5 -10 -11z"/>
<path d="M8348 5132 c-10 -4 -14 -12 -10 -19 6 -9 11 -7 20 7 7 11 11 20 10
19 -2 0 -11 -3 -20 -7z"/>
<path d="M8770 5136 c0 -9 30 -14 35 -6 4 6 -3 10 -14 10 -12 0 -21 -2 -21 -4z"/>
<path d="M7975 5120 c4 -6 11 -8 16 -5 14 9 11 15 -7 15 -8 0 -12 -5 -9 -10z"/>
<path d="M8173 5124 c3 -4 -3 -14 -14 -23 -20 -16 -20 -16 1 -29 12 -7 20 -8
20 -2 0 5 -5 10 -12 10 -6 0 -4 7 5 18 20 22 21 32 5 32 -6 0 -9 -3 -5 -6z"/>
<path d="M8236 5122 c-3 -4 4 -9 15 -9 23 -2 25 3 4 10 -8 4 -16 3 -19 -1z"/>
<path d="M8705 5121 c3 -5 1 -12 -5 -16 -5 -3 -10 -12 -10 -18 0 -7 5 -4 11 6
6 9 14 15 20 12 5 -3 6 1 3 9 -3 9 -10 16 -16 16 -5 0 -7 -4 -3 -9z"/>
<path d="M8093 5113 c-24 -5 -38 -29 -22 -39 6 -3 13 -3 16 0 4 3 1 6 -6 6 -7
0 -9 5 -6 10 4 6 10 8 15 5 4 -3 13 2 20 10 7 8 11 14 9 14 -2 -1 -14 -4 -26
-6z"/>
<path d="M8757 5113 c-4 -3 -7 -11 -7 -17 0 -6 5 -5 12 2 6 6 9 14 7 17 -3 3
-9 2 -12 -2z"/>
<path d="M7846 5094 c-9 -24 -2 -26 12 -4 7 11 8 20 3 20 -5 0 -12 -7 -15 -16z"/>
<path d="M8301 5089 c-7 -12 -10 -24 -7 -27 3 -3 6 0 6 7 0 7 6 11 14 8 8 -3
13 0 12 8 -3 24 -11 25 -25 4z"/>
<path d="M8641 5094 c0 -11 3 -14 6 -6 3 7 2 16 -1 19 -3 4 -6 -2 -5 -13z"/>
<path d="M8659 5081 c-6 -18 -24 -36 -45 -46 -20 -9 -34 -23 -33 -33 1 -13 2
-14 6 -2 2 8 18 22 35 31 27 13 70 79 53 79 -4 0 -11 -13 -16 -29z"/>
<path d="M8535 5090 c-3 -5 -1 -10 4 -10 6 0 11 5 11 10 0 6 -2 10 -4 10 -3 0
-8 -4 -11 -10z"/>
<path d="M8581 5097 c2 -3 15 -10 28 -17 19 -9 22 -9 19 1 -2 7 -15 14 -28 16
-13 2 -22 2 -19 0z"/>
<path d="M7986 5074 c-11 -8 -15 -14 -9 -14 7 0 15 5 19 11 4 8 9 7 15 -2 4
-7 11 -11 14 -8 3 4 0 11 -7 17 -9 7 -19 6 -32 -4z"/>
<path d="M8260 5075 c-7 -9 -8 -15 -2 -15 5 0 12 7 16 15 3 8 4 15 2 15 -2 0
-9 -7 -16 -15z"/>
<path d="M8106 5065 c-11 -8 -15 -15 -9 -15 6 0 16 7 23 15 16 19 11 19 -14 0z"/>
<path d="M8346 5073 c5 -5 12 -12 16 -18 4 -6 8 -2 8 8 0 9 -7 17 -17 17 -9 0
-12 -3 -7 -7z"/>
<path d="M8386 5071 c-4 -5 3 -7 14 -4 23 6 26 13 6 13 -8 0 -17 -4 -20 -9z"/>
<path d="M7870 5060 c-8 -5 -11 -12 -8 -16 4 -3 14 1 23 10 18 17 9 21 -15 6z"/>
<path d="M8196 5061 c-4 -5 3 -7 14 -4 23 6 26 13 6 13 -8 0 -17 -4 -20 -9z"/>
<path d="M8500 5060 c-13 -8 -12 -10 3 -10 9 0 17 5 17 10 0 12 -1 12 -20 0z"/>
<path d="M8573 5063 c4 -3 2 -12 -5 -20 -8 -11 -7 -12 6 -7 18 7 22 34 4 34
-6 0 -8 -3 -5 -7z"/>
<path d="M8060 5040 c-6 -11 -8 -20 -6 -20 3 0 10 9 16 20 6 11 8 20 6 20 -3
0 -10 -9 -16 -20z"/>
<path d="M8125 5049 c-11 -16 -1 -19 13 -3 7 8 8 14 3 14 -5 0 -13 -5 -16 -11z"/>
<path d="M8316 5052 c-2 -4 4 -8 14 -8 10 0 16 4 14 8 -3 4 -9 8 -14 8 -5 0
-11 -4 -14 -8z"/>
<path d="M7890 5035 c0 -8 4 -15 10 -15 5 0 7 7 4 15 -4 8 -8 15 -10 15 -2 0
-4 -7 -4 -15z"/>
<path d="M8248 5043 c6 -2 18 -2 25 0 6 3 1 5 -13 5 -14 0 -19 -2 -12 -5z"/>
<path d="M7980 5031 c0 -6 4 -13 10 -16 6 -3 7 1 4 9 -7 18 -14 21 -14 7z"/>
<path d="M7840 5020 c-8 -5 -12 -12 -9 -15 4 -3 12 1 19 10 14 17 11 19 -10 5z"/>
<path d="M8355 5009 c-4 -11 -4 -23 -1 -26 3 -4 6 1 6 10 0 9 8 21 18 26 15 9
16 10 0 11 -9 0 -20 -9 -23 -21z"/>
<path d="M8516 5013 c-6 -14 -5 -15 5 -6 7 7 10 15 7 18 -3 3 -9 -2 -12 -12z"/>
<path d="M8460 5010 c0 -6 4 -9 9 -6 5 4 12 1 14 -4 3 -6 4 -5 3 2 -3 15 -26
23 -26 8z"/>
<path d="M7875 5000 c3 -5 8 -10 11 -10 2 0 4 5 4 10 0 6 -5 10 -11 10 -5 0
-7 -4 -4 -10z"/>
<path d="M7935 5000 c-3 -5 -1 -10 4 -10 6 0 11 5 11 10 0 6 -2 10 -4 10 -3 0
-8 -4 -11 -10z"/>
<path d="M8425 4990 c3 -5 10 -10 16 -10 5 0 9 5 9 10 0 6 -7 10 -16 10 -8 0
-12 -4 -9 -10z"/>
<path d="M8455 4980 c-4 -6 -16 -8 -28 -5 -12 2 -16 2 -9 -1 6 -3 10 -9 8 -13
-3 -4 1 -8 9 -8 8 0 15 5 15 10 0 5 7 7 14 4 10 -4 13 -1 9 9 -6 17 -10 17
-18 4z"/>
<path d="M8556 4973 c-6 -14 -5 -15 5 -6 7 7 10 15 7 18 -3 3 -9 -2 -12 -12z"/>
<path d="M7865 4970 c-3 -6 1 -7 9 -4 18 7 21 14 7 14 -6 0 -13 -4 -16 -10z"/>
<path d="M7907 4973 c-11 -10 -8 -20 6 -26 8 -3 14 3 14 14 2 19 -8 25 -20 12z"/>
<path d="M7946 4963 c-6 -14 -5 -15 5 -6 7 7 10 15 7 18 -3 3 -9 -2 -12 -12z"/>
<path d="M7836 4963 c-4 -4 -13 -8 -18 -8 -6 0 -13 -5 -15 -12 -3 -7 3 -9 16
-6 19 5 23 -1 20 -24 -2 -14 32 -24 45 -13 8 6 19 9 26 8 7 -2 14 3 16 10 1 7
0 8 -2 3 -8 -14 -46 0 -40 15 3 9 -2 14 -13 14 -11 0 -21 5 -23 11 -2 5 -7 7
-12 2z m34 -34 c0 -14 -17 -10 -23 5 -4 10 -1 13 9 9 7 -3 14 -9 14 -14z"/>
<path d="M8556 4934 c-8 -20 -8 -24 2 -24 4 0 8 9 9 20 2 24 -3 26 -11 4z"/>
<path d="M7793 4905 c-18 -8 -33 -17 -33 -20 0 -3 8 -1 19 4 10 6 21 8 23 5 3
-2 11 2 18 11 15 18 14 18 -27 0z"/>
<path d="M7791 4876 c-19 -7 -30 -15 -25 -18 5 -4 28 2 49 12 45 21 28 25 -24
6z"/>
<path d="M8630 4879 c0 -5 5 -7 10 -4 6 3 10 8 10 11 0 2 -4 4 -10 4 -5 0 -10
-5 -10 -11z"/>
<path d="M7784 4840 c-12 -5 -26 -15 -30 -22 -6 -10 -4 -10 9 1 18 15 24 2 6
-16 -7 -7 -6 -12 5 -16 12 -5 16 0 16 16 0 13 5 28 12 35 14 14 11 14 -18 2z"/>
<path d="M7814 4828 c-5 -7 -9 -25 -8 -41 1 -23 -2 -27 -20 -22 -12 3 -16 2
-9 -1 7 -3 9 -12 6 -20 -4 -12 -10 -9 -24 13 -11 15 -19 23 -19 18 0 -6 5 -16
12 -23 9 -9 9 -12 0 -12 -7 0 -12 -4 -12 -10 0 -5 7 -10 15 -10 8 0 15 -4 15
-10 0 -6 -10 -5 -25 2 -17 8 -24 17 -20 27 3 8 -5 4 -18 -9 -28 -29 -23 -39
25 -46 33 -6 37 -4 54 32 11 21 26 40 34 42 12 2 11 0 -2 -11 -12 -10 -14 -17
-7 -24 8 -8 7 -13 0 -17 -17 -11 -13 -26 7 -26 13 0 14 2 4 9 -11 6 -10 10 4
15 15 6 16 9 4 16 -8 5 -11 12 -8 15 12 13 29 -7 23 -26 -4 -11 -2 -19 4 -19
6 0 11 7 11 15 0 8 6 15 13 15 8 0 7 4 -3 10 -10 6 -11 10 -2 10 6 0 12 12 12
26 0 20 -4 25 -16 20 -14 -5 -15 -4 -5 8 7 8 18 13 26 10 13 -5 31 13 22 22
-3 4 -49 -12 -65 -22 -10 -6 11 -43 20 -38 7 4 8 2 4 -4 -5 -8 -13 -8 -31 0
-13 6 -22 15 -19 20 6 9 13 58 9 58 -1 0 -7 -6 -11 -12z m-79 -128 c8 -13 -5
-13 -25 0 -13 8 -13 10 2 10 9 0 20 -4 23 -10z"/>
<path d="M8520 4819 c0 -5 5 -7 10 -4 6 3 10 8 10 11 0 2 -4 4 -10 4 -5 0 -10
-5 -10 -11z"/>
<path d="M8566 4782 c-3 -5 1 -9 9 -9 8 0 15 4 15 9 0 4 -4 8 -9 8 -6 0 -12
-4 -15 -8z"/>
<path d="M1214 5823 c-4 -21 -11 -44 -17 -51 -5 -7 -7 -15 -4 -18 3 -3 10 3
15 13 13 23 26 93 19 93 -4 0 -9 -17 -13 -37z"/>
</g>
</svg>
